<svg xmlns="http://www.w3.org/2000/svg" width="25.456" height="25.456" viewBox="0 0 25.456 25.456">
  <g id="_23" data-name="23" transform="translate(0 12.729) rotate(-45)">
    <path id="Shape" d="M11.652,18a1.2,1.2,0,0,1-.852-.353l-2.89-2.89A3.3,3.3,0,0,1,3.243,10.09L.353,7.2a1.208,1.208,0,0,1,0-1.7A1.193,1.193,0,0,1,1.2,5.142a1.224,1.224,0,0,1,.392.066,3.946,3.946,0,0,0,1.24.2,4.249,4.249,0,0,0,2.3-.707L8.15,1.689a5.765,5.765,0,0,1,7.34-.678l.13-.13a1.059,1.059,0,1,1,1.5,1.5l-.129.13a5.763,5.763,0,0,1-.679,7.34L13.3,12.863a4.055,4.055,0,0,0-.5,3.543A1.2,1.2,0,0,1,11.652,18ZM1.2,6.011a.336.336,0,0,0-.237.574L11.415,17.032a.336.336,0,0,0,.554-.347,4.917,4.917,0,0,1,.624-4.334l.057-.07L15.7,9.235a4.9,4.9,0,0,0,.381-6.5l-.24-.3.668-.667a.19.19,0,1,0-.269-.269l-.667.668-.3-.24a4.9,4.9,0,0,0-6.5.38l-3.116,3.1a5.106,5.106,0,0,1-2.809.872A4.814,4.814,0,0,1,1.315,6.03.367.367,0,0,0,1.2,6.011Zm2.66,4.7a2.427,2.427,0,0,0,3.428,3.427Z" fill="#989bb0"/>
  </g>
</svg>
