<svg id="_Icons_Close_Copy_3" data-name="_Icons / Close Copy 3" xmlns="http://www.w3.org/2000/svg" xmlns:xlink="http://www.w3.org/1999/xlink" width="17" height="15" viewBox="0 0 17 15">
  <defs>
    <clipPath id="clip-path">
      <path id="Filters" d="M1.336,15a1.336,1.336,0,1,1,0-2.671H8.109a1.336,1.336,0,0,1,0,2.671Zm0-6.165a1.336,1.336,0,0,1,0-2.671H15.665a1.336,1.336,0,1,1,0,2.671Zm0-6.164A1.336,1.336,0,1,1,1.336,0H15.665a1.336,1.336,0,1,1,0,2.671Z" fill="#414d55"/>
    </clipPath>
  </defs>
  <path id="Filters-2" data-name="Filters" d="M1.336,15a1.336,1.336,0,1,1,0-2.671H8.109a1.336,1.336,0,0,1,0,2.671Zm0-6.165a1.336,1.336,0,0,1,0-2.671H15.665a1.336,1.336,0,1,1,0,2.671Zm0-6.164A1.336,1.336,0,1,1,1.336,0H15.665a1.336,1.336,0,1,1,0,2.671Z" fill="#414d55"/>
</svg>
