<svg id="agendas" xmlns="http://www.w3.org/2000/svg" width="50" height="53" viewBox="0 0 50 53">
  <path id="Shape" d="M3.479,46h0a1.251,1.251,0,0,1-1.141-.743L2.309,45.2,1.032,42.434q-.258-.558-.515-1.116L.26,40.76A3.622,3.622,0,0,1,0,39.086V2.468A2.439,2.439,0,0,1,2.4,0h2.15a2.439,2.439,0,0,1,2.4,2.468V27.113a.76.76,0,1,1-1.519,0V10.981H1.519V39.244h3.92V30.786a.76.76,0,1,1,1.519,0v7.066c0,.232.011.469.022.691a4.76,4.76,0,0,1-.2,2.046c-.157.395-.352.8-.509,1.119l-.058.122c-.058.119-.134.276-.2.429q-.693,1.5-1.383,3A1.253,1.253,0,0,1,3.479,46ZM1.96,40.8l1.519,3.29L5,40.8H1.96ZM1.519,8.217h0V9.37h3.92V8.217H1.519ZM2.4,1.559a.9.9,0,0,0-.885.909v4.19h3.92V2.468a.9.9,0,0,0-.884-.909Z" transform="translate(43 2)" fill="#565bf6"/>
  <path id="Path" d="M26,5.753V1.246A1.287,1.287,0,0,0,24.679,0H1.322A1.287,1.287,0,0,0,0,1.246V5.754A1.287,1.287,0,0,0,1.322,7h3.32a.749.749,0,1,0,0-1.5H1.586V1.5H24.415V5.5H8.306a.749.749,0,1,0,0,1.5H24.679A1.287,1.287,0,0,0,26,5.753Z" transform="translate(5 8)" fill="#565bf6"/>
  <path id="Shape-2" data-name="Shape" d="M10.373,53a1.333,1.333,0,0,1-.661-.177L7.588,51.611,5.463,52.823a1.322,1.322,0,0,1-1.326,0,1.3,1.3,0,0,1-.662-1.139V48.818H2.708A2.7,2.7,0,0,1,0,46.133V.778A.782.782,0,0,1,.785,0H34.127A2.567,2.567,0,0,1,36.7,2.552V3.815h.722A2.567,2.567,0,0,1,40,6.368v39.9a2.567,2.567,0,0,1-2.575,2.552H11.7v2.865a1.3,1.3,0,0,1-.663,1.139A1.335,1.335,0,0,1,10.373,53ZM7.587,50.02a1.34,1.34,0,0,1,.662.175l1.882,1.074V45H5.044v6.266l1.882-1.074A1.339,1.339,0,0,1,7.587,50.02ZM11.7,45v2.26H37.425a1,1,0,0,0,1.006-1V6.368a1,1,0,0,0-1.006-1H36.7V42.45A2.567,2.567,0,0,1,34.127,45ZM1.569,45v1.13a1.136,1.136,0,0,0,1.139,1.129h.767V45Zm0-43.447V43.448H34.127a1,1,0,0,0,1.007-1V2.552a1,1,0,0,0-1.007-1Z" fill="#565bf6"/>
  <path id="Path-2" data-name="Path" d="M13,1a.9.9,0,0,0-.755-1H.755A.9.9,0,0,0,0,1,.9.9,0,0,0,.755,2h11.49A.9.9,0,0,0,13,1Z" transform="translate(15 30)" fill="#565bf6"/>
  <path id="Path-3" data-name="Path" d="M2.271,0H.728C.326,0,0,.447,0,1S.326,2,.728,2H2.271C2.674,2,3,1.553,3,1S2.674,0,2.271,0Z" transform="translate(29 30)" fill="#565bf6"/>
  <path id="Path-4" data-name="Path" d="M.781,0A.911.911,0,0,0,0,1,.911.911,0,0,0,.781,2H5.219A.911.911,0,0,0,6,1a.911.911,0,0,0-.781-1Z" transform="translate(14 34)" fill="#565bf6"/>
  <path id="Path-5" data-name="Path" d="M9.274,0H.726C.325,0,0,.448,0,1S.325,2,.726,2H9.274c.4,0,.726-.448.726-1S9.675,0,9.274,0Z" transform="translate(22 34)" fill="#565bf6"/>
  <path id="Path-6" data-name="Path" d="M8.193,0H.807A.919.919,0,0,0,0,1,.919.919,0,0,0,.807,2H8.193A.919.919,0,0,0,9,1,.919.919,0,0,0,8.193,0Z" transform="translate(13 38)" fill="#565bf6"/>
  <path id="Path-7" data-name="Path" d="M7.227,0H.773A.908.908,0,0,0,0,1,.908.908,0,0,0,.773,2H7.227A.909.909,0,0,0,8,1,.908.908,0,0,0,7.227,0Z" transform="translate(24 38)" fill="#565bf6"/>
</svg>
