<svg xmlns="http://www.w3.org/2000/svg" width="14.418" height="24.716" viewBox="0 0 14.418 24.716">
  <path id="Forma_1" data-name="Forma 1" d="M899.17,722.406a.268.268,0,0,0-.523,0c-1.137,9.15-6.948,11.036-6.948,17.4a7.209,7.209,0,0,0,14.418,0C906.118,733.442,900.307,731.557,899.17,722.406Zm-1.1,10.115c-.076.282-.158.572-.243.872a22.616,22.616,0,0,0-1.1,6.317c0,1.3-.769,1.764-1.489,1.764a1.5,1.5,0,0,1-1.489-1.5c0-2.841,1.368-4.7,2.576-6.335.378-.513.735-1,1.025-1.48a.405.405,0,0,1,.652.007A.414.414,0,0,1,898.072,732.521Z" transform="translate(-891.7 -722.2)" fill="#32ccfd"/>
</svg>
