<svg xmlns="http://www.w3.org/2000/svg" width="14.928" height="14.752" viewBox="0 0 14.928 14.752">
  <g id="_x33_" transform="translate(0 -0.378)">
    <path id="Path_404" data-name="Path 404" d="M7.7,7.905a3.764,3.764,0,1,1,3.763-3.764A3.768,3.768,0,0,1,7.7,7.905Zm0-6.885a3.121,3.121,0,1,0,3.121,3.121A3.125,3.125,0,0,0,7.7,1.02Zm7.224,14.11H0V13.2A4.821,4.821,0,0,1,4.816,8.388h5.3A4.821,4.821,0,0,1,14.928,13.2ZM.642,14.488H14.287V13.2A4.178,4.178,0,0,0,10.113,9.03h-5.3A4.178,4.178,0,0,0,.642,13.2v1.284Z" transform="translate(0 0)" fill="#989bb0"/>
  </g>
</svg>
