<svg xmlns="http://www.w3.org/2000/svg" width="13" height="13.491" viewBox="0 0 13 13.491">
  <g id="exit" transform="translate(-1.001)">
    <path id="Path_408" data-name="Path 408" d="M34.36,14.282a.246.246,0,0,0,0-.187.25.25,0,0,0-.053-.08l-2.943-2.943a.245.245,0,0,0-.347.347l2.525,2.525H28.246a.245.245,0,0,0,0,.491h5.295l-2.525,2.525a.245.245,0,1,0,.347.347l2.943-2.943A.247.247,0,0,0,34.36,14.282Z" transform="translate(-20.377 -8.302)" fill="#989bb0"/>
    <path id="Path_409" data-name="Path 409" d="M9.586,7.113a.245.245,0,0,0-.245.245v3.925H6.888V1.962a.245.245,0,0,0-.171-.234L2.826.491H9.341V4.415a.245.245,0,0,0,.491,0V.245A.245.245,0,0,0,9.586,0H1.246a.224.224,0,0,0-.022,0,.226.226,0,0,0-.039.008.238.238,0,0,0-.064.026c-.006,0-.014,0-.02.008s-.013.013-.02.019L1.069.078a.255.255,0,0,0-.045.067s0,.01-.005.015A.245.245,0,0,0,1,.245V11.529a.242.242,0,0,0,.018.087.246.246,0,0,0,.013.025.236.236,0,0,0,.032.048l.022.022a.243.243,0,0,0,.047.032.218.218,0,0,0,.027.014l.012.006,5.4,1.717a.254.254,0,0,0,.074.011.245.245,0,0,0,.245-.245V11.774h2.7a.245.245,0,0,0,.245-.245V7.359A.245.245,0,0,0,9.586,7.113ZM6.4,12.91,1.492,11.349V.581L6.4,2.142Z" fill="#989bb0"/>
  </g>
</svg>
