<svg xmlns="http://www.w3.org/2000/svg" width="13" height="8.753" viewBox="0 0 13 8.753">
  <g id="_x39_" transform="translate(0 -10.455)">
    <path id="Path_407" data-name="Path 407" d="M6.5,19.208c-3.543,0-6.336-4.052-6.454-4.225a.271.271,0,0,1,0-.3c.117-.172,2.911-4.224,6.454-4.224s6.336,4.052,6.453,4.224a.271.271,0,0,1,0,.3C12.836,15.156,10.043,19.208,6.5,19.208ZM.6,14.831c.541.73,3.009,3.835,5.9,3.835s5.355-3.1,5.9-3.835C11.856,14.1,9.387,11,6.5,11S1.144,14.1.6,14.831Zm5.9,2.182a2.182,2.182,0,1,1,2.182-2.182A2.184,2.184,0,0,1,6.5,17.014Zm0-3.823a1.641,1.641,0,1,0,1.641,1.641A1.642,1.642,0,0,0,6.5,13.191Z" transform="translate(0 0)" fill="#989bb0"/>
  </g>
</svg>
