<svg xmlns="http://www.w3.org/2000/svg" xmlns:xlink="http://www.w3.org/1999/xlink" width="156" height="54" viewBox="0 0 156 54">
  <defs>
    <filter id="Rectangle" x="0" y="0" width="156" height="54" filterUnits="userSpaceOnUse">
      <feOffset dy="1" input="SourceAlpha"/>
      <feGaussianBlur stdDeviation="1" result="blur"/>
      <feFlood flood-opacity="0.239"/>
      <feComposite operator="in" in2="blur"/>
      <feComposite in="SourceGraphic"/>
    </filter>
  </defs>
  <g id="Google_Light" data-name="Google Light" transform="translate(3 2)">
    <g transform="matrix(1, 0, 0, 1, -3, -2)" filter="url(#Rectangle)">
      <rect id="Rectangle-2" data-name="Rectangle" width="150" height="48" rx="8" transform="translate(3 2)" fill="#385c8e"/>
    </g>
    <text id="Sign_in_with_Google" data-name="Sign in with Google" transform="translate(85.324 29)" fill="#fff" font-size="14" font-family="Roboto-Medium, Roboto" font-weight="500" letter-spacing="0.029em"><tspan x="-31.902" y="0">Facebook</tspan></text>
    <path id="facebook" d="M127,10.615h2.185V19.61a.321.321,0,0,0,.321.321h3.7a.321.321,0,0,0,.321-.321V10.658h2.512a.322.322,0,0,0,.319-.285l.381-3.311a.321.321,0,0,0-.319-.358h-2.893V4.628c0-.626.337-.943,1-.943h1.892a.321.321,0,0,0,.321-.321V.324A.321.321,0,0,0,136.429,0h-2.607c-.018,0-.059,0-.119,0a5,5,0,0,0-3.266,1.231A3.425,3.425,0,0,0,129.3,4.276V6.7H127a.321.321,0,0,0-.321.321v3.269A.322.322,0,0,0,127,10.615Z" transform="translate(-111.79 14)" fill="#fff"/>
  </g>
</svg>
