<svg id="woman" xmlns="http://www.w3.org/2000/svg" width="55" height="58" viewBox="0 0 55 58">
  <path id="Path" d="M2.746,5.613c.08,0,.161,0,.244-.006a.827.827,0,0,0,.738-.894.81.81,0,0,0-.8-.822c-.387.019-1.068-.008-1.281-.384A3.245,3.245,0,0,1,1.98,1.264.911.911,0,0,0,1.666.1.733.733,0,0,0,.622.452C.5.7-.515,2.9.338,4.417a2.53,2.53,0,0,0,2.408,1.2Z" transform="translate(25.169 19.645)" fill="#989bb0"/>
  <path id="Path-2" data-name="Path" d="M2.8,1.871C2.8.822,2.182,0,1.4,0S0,.822,0,1.871.614,3.742,1.4,3.742,2.8,2.92,2.8,1.871Z" transform="translate(20.508 17.774)" fill="#989bb0"/>
  <path id="Path-3" data-name="Path" d="M1.4,3.742c.784,0,1.4-.822,1.4-1.871S2.182,0,1.4,0,0,.822,0,1.871.614,3.742,1.4,3.742Z" transform="translate(31.695 17.774)" fill="#989bb0"/>
  <path id="Path-4" data-name="Path" d="M.371.134A.812.812,0,0,0,.134,1.262a5.8,5.8,0,0,0,4.527,2.48,5.8,5.8,0,0,0,4.526-2.48A.812.812,0,0,0,8.951.134.823.823,0,0,0,7.816.368,4.137,4.137,0,0,1,4.661,2.112,4.2,4.2,0,0,1,1.506.368.823.823,0,0,0,.371.134Z" transform="translate(23.305 26.194)" fill="#989bb0"/>
  <path id="Path-5" data-name="Path" d="M41.015,11.218c-.017-.278-.455-6.833-3.78-9.665A22.229,22.229,0,0,0,35.3.139.816.816,0,0,0,34.139.41.914.914,0,0,0,34.4,1.633a20.958,20.958,0,0,1,1.782,1.3C38.266,4.709,39,8.6,39.238,10.39H.841a.887.887,0,0,0,0,1.772H40.176a.876.876,0,0,0,.839-.943Z" transform="translate(13.983 45.839)" fill="#989bb0"/>
  <path id="Shape" d="M11.63,58H.832a.812.812,0,0,1-.6-.264A.865.865,0,0,1,0,57.092c.017-.268.456-6.59,3.742-9.317a66.584,66.584,0,0,1,7.311-4.632A110.613,110.613,0,0,1,9.876,31.379a65.487,65.487,0,0,1,.755-14.216.838.838,0,0,1,.818-.7.791.791,0,0,1,.152.014.854.854,0,0,1,.668.994,63.007,63.007,0,0,0-.749,13.41A105.769,105.769,0,0,0,12.6,42.251C16.16,40.224,19.658,38.321,21,37.6V33.568c-.24-.219-.449-.428-.64-.639-4.643-5.1-4.062-14.85-4.035-15.262a.849.849,0,0,1,.614-.768,27.324,27.324,0,0,0,9.006-4.411,19.912,19.912,0,0,0,3.092-2.8.826.826,0,0,1,.638-.3.823.823,0,0,1,.742.465,15.512,15.512,0,0,0,4.705,5.622,11.551,11.551,0,0,0,2.686,1.51.847.847,0,0,1,.569.76c.024.413.542,10.164-4.133,15.233-.144.156-.3.316-.5.5V37.6c1.67.9,4.969,2.705,8.287,4.6a96.4,96.4,0,0,0,1.06-17.944C42.7,16.15,40.927,10.134,37.8,6.368a12.962,12.962,0,0,0-10.493-4.66A13.116,13.116,0,0,0,17.843,5.26,19.4,19.4,0,0,0,13,14.225a.84.84,0,0,1-.8.622.816.816,0,0,1-.227-.032.858.858,0,0,1-.575-1.054,21.08,21.08,0,0,1,5.3-9.745A14.706,14.706,0,0,1,27.311,0,14.548,14.548,0,0,1,39.074,5.261c3.463,4.179,5.384,10.789,5.709,19.647a99.8,99.8,0,0,1-1.2,18.175c.921.533,1.8,1.051,2.62,1.54a.866.866,0,0,1,.3,1.168.831.831,0,0,1-.718.423.819.819,0,0,1-.42-.117c-4.245-2.544-9.871-5.622-12.093-6.826l-3.577,7.142a2.577,2.577,0,0,1-4.636,0l-3.577-7.142C18.206,41.043,7.341,46.987,4.791,49.1,2.7,50.84,1.975,54.709,1.761,56.292H11.63a.854.854,0,0,1,0,1.707ZM22.662,34.773v3.133l3.869,7.727a.938.938,0,0,0,1.674,0l3.87-7.727V34.719a9.381,9.381,0,0,1-4.746,1.2h-.04A9.445,9.445,0,0,1,22.662,34.773Zm6.831-23.1a25.377,25.377,0,0,1-4.071,3.261,28.871,28.871,0,0,1-7.459,3.448c-.044,2.16.083,9.512,3.613,13.39a7.45,7.45,0,0,0,5.718,2.445h.019a7.456,7.456,0,0,0,5.715-2.407c3.575-3.875,3.735-11.256,3.7-13.425A16.29,16.29,0,0,1,29.493,11.669Z" fill="#989bb0"/>
</svg>
