<svg id="help" xmlns="http://www.w3.org/2000/svg" width="51" height="58.286" viewBox="0 0 51 58.286">
  <path id="Path" d="M2.332.4A1.365,1.365,0,0,0,.4.4a1.365,1.365,0,0,0,0,1.931,1.365,1.365,0,0,0,1.932,0A1.365,1.365,0,0,0,2.332.4Z" transform="translate(0 45.536)" fill="#565bf6"/>
  <path id="Shape" d="M49.886,58.286H12.695a1.127,1.127,0,0,1-1.113-1.139V43.388l-3.957,2.42a.111.111,0,0,0-.052.094V57.147a1.127,1.127,0,0,1-1.113,1.139H1.113A1.127,1.127,0,0,1,0,57.147V51.23a1.127,1.127,0,0,1,1.113-1.139A1.128,1.128,0,0,1,2.228,51.23v4.779H5.345V45.9a2.409,2.409,0,0,1,1.136-2.048L12.123,40.4a1.095,1.095,0,0,1,1.12-.014,1.146,1.146,0,0,1,.564.99v5.7L16.925,45.8V38.749a3.012,3.012,0,0,0-2.974-3.041,2.948,2.948,0,0,0-1.671.525L7.245,39.727a1.072,1.072,0,0,1-.626.2H2.228v2.083a1.128,1.128,0,0,1-1.114,1.139A1.127,1.127,0,0,1,0,42.007V28.428A5.234,5.234,0,0,1,3.13,23.6,5.372,5.372,0,0,1,.323,18.859v-.727A5.31,5.31,0,0,1,5.567,12.77a5.31,5.31,0,0,1,5.244,5.361v.727a5.464,5.464,0,0,1-.411,2.083l7.258-2.648a3.041,3.041,0,0,1,1.035-.184,3.155,3.155,0,0,1,.622.064,3.172,3.172,0,0,1,1.027-1.382l7.493-5.771a5.217,5.217,0,0,1-2.228-1.354l-.5-.515a5.445,5.445,0,0,1,0-7.582,5.163,5.163,0,0,1,7.416,0l.5.515a5.456,5.456,0,0,1,1.426,4.889,6.5,6.5,0,0,1,.983-.074,6.589,6.589,0,0,1,3.759,1.176L46.615,13.2A9.92,9.92,0,0,1,51,21.484V57.147A1.128,1.128,0,0,1,49.886,58.286ZM37.832,35.518l-10.892,8.6a1.116,1.116,0,0,1-.267.157L13.808,49.532v6.476H48.773V35.518H37.832ZM13.951,33.431a5.267,5.267,0,0,1,5.2,5.318V44.9L25.7,42.223l11.069-8.743a1.1,1.1,0,0,1,.68-.238h2.191V24.3a4.163,4.163,0,0,0-1.574-3.258l-4.424-3.056L23.393,22.275a2.988,2.988,0,0,1-1.166.234,3.1,3.1,0,0,1-.63-.067,3.14,3.14,0,0,1-1.132,1.466l-9.329,6.554v3.816A5.1,5.1,0,0,1,13.951,33.431ZM18.7,20.386a.875.875,0,0,0-.3.052l-14.256,5.2a2.964,2.964,0,0,0-1.923,2.789v9.219h4.05l2.631-1.826V29.864a1.145,1.145,0,0,1,.483-.938L19.2,22.032a.917.917,0,0,0,.259-1.2A.881.881,0,0,0,18.7,20.386Zm26.729,2.739a1.128,1.128,0,0,1,1.114,1.138v8.978h2.227V21.484a7.637,7.637,0,0,0-2.747-5.9L40.407,20.2a6.5,6.5,0,0,1,1.462,4.1v8.944h2.45V24.263A1.127,1.127,0,0,1,45.432,23.125ZM5.567,15.046a3.055,3.055,0,0,0-3.017,3.085v.727a3.055,3.055,0,0,0,3.017,3.085,3.055,3.055,0,0,0,3.018-3.085v-.727A3.055,3.055,0,0,0,5.567,15.046ZM35.431,9.177a4.4,4.4,0,0,0-2.7.923L21.682,18.61a.915.915,0,0,0-.229,1.181l0,.005a.887.887,0,0,0,.761.438.851.851,0,0,0,.33-.067l10.8-4.523a1.127,1.127,0,0,1,.422-.085,1.1,1.1,0,0,1,.623.194l4.273,2.951,5.448-4.48L37.944,9.963A4.409,4.409,0,0,0,35.431,9.177Zm-6.62-6.9a2.966,2.966,0,0,0-2.134.9,3.135,3.135,0,0,0,0,4.361l.5.515a2.972,2.972,0,0,0,4.267,0,3.136,3.136,0,0,0,0-4.361l-.5-.515A2.962,2.962,0,0,0,28.812,2.277Z" fill="#565bf6"/>
  <path id="Path-2" data-name="Path" d="M3.5,0H1.051a1.061,1.061,0,0,0,0,2.122h1.4v4.1a1.051,1.051,0,1,0,2.1,0V1.061A1.056,1.056,0,0,0,3.5,0Z" transform="translate(41.893 40.071)" fill="#565bf6"/>
  <path id="Path-3" data-name="Path" d="M2.332.4A1.365,1.365,0,0,0,.4.4a1.365,1.365,0,0,0,0,1.931,1.365,1.365,0,0,0,1.932,0A1.365,1.365,0,0,0,2.332.4Z" transform="translate(43.714 49.179)" fill="#565bf6"/>
</svg>
