<svg xmlns="http://www.w3.org/2000/svg" width="53" height="53" viewBox="0 0 53 53">
  <g id="hospital" transform="translate(0)">
    <path id="Shape" d="M24.062,39.053H12.929A1.047,1.047,0,0,1,11.885,38V32.181l-3.96-2.273a7.3,7.3,0,0,1-3.3-3.038L1.457,21.227A11.391,11.391,0,0,1,0,15.626C.016,9.837.024,5.99.024,4.191A2.549,2.549,0,0,1,.837,2.345a3.284,3.284,0,0,1,2.228-.878c.047,0,.094,0,.142,0a3.017,3.017,0,0,1,1.131.28A3.051,3.051,0,0,1,7,0h.019l.087,0a3.079,3.079,0,0,1,3.067,3.083v.1a3.117,3.117,0,0,1,.876-.158h.106A3.079,3.079,0,0,1,14.225,6.1V9.317a3.053,3.053,0,0,1,.876-.157l.105,0a3.078,3.078,0,0,1,3.067,3.083v7.524l3.712,1.674a5.107,5.107,0,0,1,3.12,4.719V38A1.047,1.047,0,0,1,24.062,39.053Zm-21-35.488a1.164,1.164,0,0,0-.781.3.46.46,0,0,0-.167.328c0,1.782-.008,5.738-.024,11.441A9.288,9.288,0,0,0,3.273,20.2l3.171,5.642a5.18,5.18,0,0,0,2.381,2.177c.029.013.059.029.092.048l4.529,2.6a1.05,1.05,0,0,1,.526.91v5.384h9.048v-10.8a3.013,3.013,0,0,0-1.85-2.789l-.013-.005-.013-.005-3.251-1.466,1.163,1.181a1.053,1.053,0,0,1-.008,1.482,1.038,1.038,0,0,1-1.474-.008L8.047,14.869a1.182,1.182,0,0,0-.85-.361,1.168,1.168,0,0,0-.731.255l-.016.014-.114.1a1.2,1.2,0,0,0,.014,1.665l4.078,4.412.184.2a1.054,1.054,0,0,1-.054,1.482,1.039,1.039,0,0,1-1.473-.055L4.853,18A3.321,3.321,0,0,1,3.962,15.2a3.359,3.359,0,0,1,.079-.371V4.609a1.026,1.026,0,0,0-.932-1.043Zm12.147,7.689h-.04a.98.98,0,0,0-.941.986v5.7l1.963.886V12.24A.985.985,0,0,0,15.206,11.254ZM11.157,5.118h-.04a.981.981,0,0,0-.942.985v7.946l1.963,1.994V6.1A.985.985,0,0,0,11.157,5.118ZM7.108,2.1h-.04a.982.982,0,0,0-.941.986v9.508a3.247,3.247,0,0,1,1.964-.057V3.083A.986.986,0,0,0,7.108,2.1Z" transform="translate(0 13.947)" fill="#565bf6"/>
    <path id="Path" d="M1.841.748A.93.93,0,0,0,1.788.574,1,1,0,0,0,1.7.413a.931.931,0,0,0-.115-.14A.9.9,0,0,0,1.446.156.959.959,0,0,0,1.285.071a.927.927,0,0,0-1.013.2.937.937,0,0,0-.116.14A.989.989,0,0,0,.071.574.939.939,0,0,0,.018.748a.944.944,0,0,0,0,.364.941.941,0,0,0,.053.174.955.955,0,0,0,.086.161.9.9,0,0,0,.116.141A.884.884,0,0,0,.414,1.7a.943.943,0,0,0,.16.086.961.961,0,0,0,.174.053.9.9,0,0,0,.364,0,.939.939,0,0,0,.174-.053A.952.952,0,0,0,1.446,1.7.9.9,0,0,0,1.7,1.446a.977.977,0,0,0,.086-.161.939.939,0,0,0,.053-.174.9.9,0,0,0,0-.364Z" transform="translate(11.158 38.123)" fill="#565bf6"/>
    <path id="Shape-2" data-name="Shape" d="M12.177,39.053H1.043A1.047,1.047,0,0,1,0,38V26.157a5.107,5.107,0,0,1,3.119-4.719l3.713-1.674V12.241A3.079,3.079,0,0,1,9.9,9.157l.106,0a3.039,3.039,0,0,1,.876.157V6.1a3.079,3.079,0,0,1,3.067-3.083H14l.055,0a3.092,3.092,0,0,1,.876.157v-.1A3.079,3.079,0,0,1,18,0H18.1a3.054,3.054,0,0,1,2.664,1.75,3,3,0,0,1,1.131-.28c.048,0,.1,0,.145,0a3.28,3.28,0,0,1,2.225.878,2.549,2.549,0,0,1,.813,1.846c0,1.789.008,5.636.024,11.434a11.4,11.4,0,0,1-1.457,5.6l-3.171,5.642a7.306,7.306,0,0,1-3.3,3.038L13.22,32.18V38A1.047,1.047,0,0,1,12.177,39.053ZM7.213,21.891,3.962,23.357l-.013.005-.013.005a3.014,3.014,0,0,0-1.85,2.789v10.8h9.049V31.572a1.051,1.051,0,0,1,.526-.91l4.529-2.6c.033-.019.063-.034.092-.048a5.18,5.18,0,0,0,2.381-2.177L21.833,20.2a9.286,9.286,0,0,0,1.187-4.564C23,9.916,23,5.96,23,4.191a.46.46,0,0,0-.167-.328,1.16,1.16,0,0,0-.778-.3H22a1.026,1.026,0,0,0-.932,1.043V14.826a3.425,3.425,0,0,1,.079.372A3.321,3.321,0,0,1,20.253,18l-4.232,4.579a1.038,1.038,0,0,1-1.473.054,1.053,1.053,0,0,1-.055-1.481l4.262-4.611a1.2,1.2,0,0,0,.013-1.665l-.027-.025c-.033-.03-.076-.069-.1-.092a1.179,1.179,0,0,0-1.579.1L7.532,24.546a1.038,1.038,0,0,1-1.474.008,1.053,1.053,0,0,1-.008-1.482Zm2.68-10.637a.982.982,0,0,0-.975.987v6.583l1.963-.886v-5.7a.981.981,0,0,0-.941-.986Zm4.049-6.135a.982.982,0,0,0-.975.986v9.941l1.963-1.994V6.1a.98.98,0,0,0-.941-.985Zm3.966,7.291a3.235,3.235,0,0,1,1.071.182V3.083a.982.982,0,0,0-.941-.986H17.99a.982.982,0,0,0-.975.986v9.451A3.219,3.219,0,0,1,17.908,12.409Z" transform="translate(27.895 13.947)" fill="#565bf6"/>
    <path id="Path-2" data-name="Path" d="M1.842.748A.936.936,0,0,0,1.789.574,1,1,0,0,0,1.7.413a1,1,0,0,0-.116-.14A.9.9,0,0,0,1.446.157a.951.951,0,0,0-.16-.086A.987.987,0,0,0,1.112.018a.92.92,0,0,0-.363,0A.944.944,0,0,0,.575.071.924.924,0,0,0,.414.157.9.9,0,0,0,.272.273a.931.931,0,0,0-.115.14A.989.989,0,0,0,.072.574.939.939,0,0,0,.019.748a.9.9,0,0,0,0,.363.941.941,0,0,0,.053.174.954.954,0,0,0,.086.161A.9.9,0,0,0,.414,1.7a.918.918,0,0,0,.161.086.935.935,0,0,0,.174.053A.915.915,0,0,0,.93,1.86a.925.925,0,0,0,.182-.019.98.98,0,0,0,.174-.053.941.941,0,0,0,.16-.086.884.884,0,0,0,.141-.115A.95.95,0,0,0,1.7,1.446a.984.984,0,0,0,.086-.161.939.939,0,0,0,.053-.174.944.944,0,0,0,0-.363Z" transform="translate(39.982 38.123)" fill="#565bf6"/>
    <path id="Shape-3" data-name="Shape" d="M13.483,26.965A13.482,13.482,0,1,1,26.965,13.482,13.5,13.5,0,0,1,13.483,26.965Zm0-24.881a11.4,11.4,0,1,0,11.4,11.4A11.412,11.412,0,0,0,13.483,2.084Z" transform="translate(13.018)" fill="#565bf6"/>
    <path id="Shape-4" data-name="Shape" d="M9.773,14.877H5.1a.984.984,0,0,1-.984-.983V10.757H.984A.985.985,0,0,1,0,9.773V5.1A.985.985,0,0,1,.984,4.12H4.12V.984A.985.985,0,0,1,5.1,0H9.773a.985.985,0,0,1,.984.984V4.12h3.137a.984.984,0,0,1,.983.984V9.773a.984.984,0,0,1-.983.984H10.757v3.136A.985.985,0,0,1,9.773,14.877ZM1.967,6.087v2.7H5.1a.984.984,0,0,1,.984.983v3.137h2.7V9.773a.984.984,0,0,1,.983-.983h3.137v-2.7H9.773A.984.984,0,0,1,8.79,5.1V1.967h-2.7V5.1a.984.984,0,0,1-.984.983Z" transform="translate(19.526 6.509)" fill="#565bf6"/>
  </g>
</svg>
