<svg xmlns="http://www.w3.org/2000/svg" width="15.146" height="13.336" viewBox="0 0 15.146 13.336">
  <g id="list" transform="translate(0 -29.25)">
    <g id="Group_183" data-name="Group 183" transform="translate(0 29.25)">
      <path id="Path_636" data-name="Path 636" d="M1.63,32.513A1.631,1.631,0,1,0,0,30.88,1.632,1.632,0,0,0,1.63,32.513Zm0-2.505a.872.872,0,1,1-.872.872A.873.873,0,0,1,1.63,30.008Z" transform="translate(0 -29.25)" fill="#989bb0"/>
      <path id="Path_637" data-name="Path 637" d="M1.63,195.41A1.63,1.63,0,1,0,0,193.78,1.632,1.632,0,0,0,1.63,195.41Zm0-2.5a.872.872,0,1,1-.872.872A.873.873,0,0,1,1.63,192.908Z" transform="translate(0 -187.112)" fill="#989bb0"/>
      <path id="Path_638" data-name="Path 638" d="M1.63,358.31A1.63,1.63,0,1,0,0,356.68,1.632,1.632,0,0,0,1.63,358.31Zm0-2.505a.872.872,0,1,1-.872.872A.873.873,0,0,1,1.63,355.8Z" transform="translate(0 -344.974)" fill="#989bb0"/>
      <path id="Path_639" data-name="Path 639" d="M163.98,70.411h9.325a.38.38,0,0,0,0-.761H163.98a.38.38,0,1,0,0,.761Z" transform="translate(-158.54 -68.4)" fill="#989bb0"/>
      <path id="Path_640" data-name="Path 640" d="M163.98,233.311h9.325a.38.38,0,0,0,0-.761H163.98a.38.38,0,0,0,0,.761Z" transform="translate(-158.54 -226.262)" fill="#989bb0"/>
      <path id="Path_641" data-name="Path 641" d="M163.98,396.111h9.325a.38.38,0,1,0,0-.761H163.98a.38.38,0,1,0,0,.761Z" transform="translate(-158.54 -384.027)" fill="#989bb0"/>
    </g>
  </g>
</svg>
