<svg xmlns="http://www.w3.org/2000/svg" width="55" height="58" viewBox="0 0 55 58">
  <g id="man" transform="translate(0)">
    <path id="Path" d="M3,1.5A1.484,1.484,0,0,0,1.5,0,1.484,1.484,0,0,0,0,1.5,1.484,1.484,0,0,0,1.5,3,1.484,1.484,0,0,0,3,1.5Z" transform="translate(20 18)" fill="#565bf6"/>
    <path id="Path-2" data-name="Path" d="M1.5,3A1.484,1.484,0,0,0,3,1.5,1.484,1.484,0,0,0,1.5,0,1.484,1.484,0,0,0,0,1.5,1.484,1.484,0,0,0,1.5,3Z" transform="translate(32 18)" fill="#565bf6"/>
    <path id="Path-3" data-name="Path" d="M2.938,5Q3.066,5,3.2,5A.8.8,0,0,0,4,4.188a.813.813,0,0,0-.87-.742C2.721,3.462,2,3.44,1.78,3.112c-.286-.422.043-1.425.356-1.971A.747.747,0,0,0,1.8.093.871.871,0,0,0,.663.408C.536.626-.551,2.582.361,3.934A2.894,2.894,0,0,0,2.938,5Z" transform="translate(25 20)" fill="#565bf6"/>
    <path id="Path-4" data-name="Path" d="M.4.144A.873.873,0,0,0,.146,1.364,6.221,6.221,0,0,0,5,4,6.222,6.222,0,0,0,9.854,1.364.871.871,0,0,0,9.6.148.9.9,0,0,0,8.361.395,4.477,4.477,0,0,1,5,2.239,4.477,4.477,0,0,1,1.641.4.9.9,0,0,0,.4.144Z" transform="translate(23 26)" fill="#565bf6"/>
    <path id="Shape" d="M11.144,58H.842a.838.838,0,0,1-.606-.267A.868.868,0,0,1,0,57.089,20.665,20.665,0,0,1,.64,53.408a10.6,10.6,0,0,1,3.08-5.5c2.788-2.294,14.737-8.745,17.1-10.015V33.9c-.191-.175-.368-.351-.54-.535A12.876,12.876,0,0,1,17.851,29.4a4.8,4.8,0,0,1-.82.075,4.089,4.089,0,0,1-3.4-1.817c-1.529-2.114-1.761-5.68-.488-7.482.026-.038.053-.074.081-.111-.316-2.072-.52-3.968-.608-5.633a.853.853,0,0,1,.8-.9h.047a.847.847,0,0,1,.839.81c.072,1.358.225,2.886.455,4.541a2.844,2.844,0,0,1,.965-.167,3.118,3.118,0,0,1,.447.032c.006-.247.014-.377.015-.4a.86.86,0,0,1,.332-.633,22.125,22.125,0,0,0,6.325-8.759.84.84,0,0,1,.7-.542c.033,0,.059,0,.088,0a.838.838,0,0,1,.7.385A18.566,18.566,0,0,0,27.5,12.2a26.727,26.727,0,0,0,9.973,5.32.855.855,0,0,1,.609.767V18.3c0,.083.014.237.02.463a3.1,3.1,0,0,1,.5-.04,2.833,2.833,0,0,1,.944.158c1.158-4.494.726-8.277-1.286-11.242-3.037-4.478-8.745-5.8-10.5-5.913-.109-.007-.223-.011-.337-.011a6.582,6.582,0,0,0-4.778,2.4.835.835,0,0,1-.67.334.824.824,0,0,1-.511-.176,3.161,3.161,0,0,0-1.951-.746,2.831,2.831,0,0,0-.917.158c-1.687.577-3.248,2.7-3.978,5.418a11.13,11.13,0,0,0-.314,2.075.851.851,0,0,1-.837.8l-.061,0a.853.853,0,0,1-.78-.914,12.73,12.73,0,0,1,.369-2.407c.888-3.3,2.829-5.825,5.065-6.59a4.4,4.4,0,0,1,3.781.411A7.93,7.93,0,0,1,27.405,0c.166,0,.319,0,.455.014C29.973.147,36.211,1.6,39.646,6.664c2.4,3.545,2.86,8.016,1.355,13.288.077.1.13.166.175.229,1.275,1.8,1.04,5.372-.491,7.486a4.091,4.091,0,0,1-3.4,1.813,4.806,4.806,0,0,1-.829-.076,12.82,12.82,0,0,1-2.381,3.914c-.175.19-.371.385-.582.581v3.993c1.282.689,3.847,2.077,6.607,3.618a.865.865,0,0,1,.333,1.163.843.843,0,0,1-.744.443.823.823,0,0,1-.4-.1c-2.547-1.421-4.812-2.651-5.936-3.258A6.5,6.5,0,0,1,31.169,43.4a6.238,6.238,0,0,1-8.018,0,6.492,6.492,0,0,1-2.186-3.643C16.9,41.948,7.178,47.263,4.777,49.238a9.4,9.4,0,0,0-2.552,4.771,19.869,19.869,0,0,0-.445,2.278h9.364a.856.856,0,0,1,0,1.713ZM22.507,35.124v3.284a4.653,4.653,0,1,0,9.305,0V35.123a9.433,9.433,0,0,1-4.622,1.143h-.04A9.414,9.414,0,0,1,22.507,35.124Zm1.326-24.181a24.232,24.232,0,0,1-5.985,7.887,31.225,31.225,0,0,0,.444,5.869,14.572,14.572,0,0,0,3.217,7.49,7.383,7.383,0,0,0,5.633,2.363h.042a7.4,7.4,0,0,0,5.66-2.4c3.494-3.808,3.624-11.039,3.58-13.164A26.759,26.759,0,0,1,23.833,10.943Zm-8.106,9.49a1.482,1.482,0,0,0-1.216.748c-.774,1.094-.706,3.832.477,5.467a2.439,2.439,0,0,0,2.038,1.121c.086,0,.171,0,.253-.012a25.741,25.741,0,0,1-.816-3.838,33.108,33.108,0,0,1-.289-3.42A1.638,1.638,0,0,0,15.727,20.433Zm22.87,0a1.739,1.739,0,0,0-.494.079,33.294,33.294,0,0,1-.264,3.334,25.515,25.515,0,0,1-.811,3.908c.083.008.174.013.267.013A2.439,2.439,0,0,0,39.33,26.65c1.185-1.635,1.254-4.374.479-5.469A1.479,1.479,0,0,0,38.6,20.434Z" fill="#565bf6"/>
    <path id="Path-5" data-name="Path" d="M41,14.084c-.017-.265-.451-6.519-3.749-9.222A69.307,69.307,0,0,0,29.634.111a.843.843,0,0,0-1.156.328A.866.866,0,0,0,28.8,1.61a64.148,64.148,0,0,1,7.38,4.59c2.056,1.685,2.787,5.363,3.022,7.08H.848a.86.86,0,0,0,0,1.72h39.3A.864.864,0,0,0,41,14.084Z" transform="translate(14 43)" fill="#565bf6"/>
  </g>
</svg>
