<svg xmlns="http://www.w3.org/2000/svg" width="20.178" height="11.779" viewBox="0 0 20.178 11.779">
  <g id="group" transform="translate(-16.005 -11.284)">
    <g id="Group_168" data-name="Group 168" transform="translate(16.005 16.581)">
      <g id="Group_167" data-name="Group 167" transform="translate(0)">
        <path id="Path_631" data-name="Path 631" d="M33.067,268.65h-2.6a3.1,3.1,0,0,0-1.53.4,3.156,3.156,0,0,0-1.007.905,3.115,3.115,0,0,0-.537-.046H24.8a3.109,3.109,0,0,0-.537.046,3.153,3.153,0,0,0-1.007-.905,3.1,3.1,0,0,0-1.53-.4h-2.6a3.132,3.132,0,0,0-3.125,3.125v1.762a.336.336,0,0,0,.336.333h5.325v.926a.336.336,0,0,0,.336.336h8.186a.336.336,0,0,0,.336-.336v-.926h5.325a.336.336,0,0,0,.336-.336v-1.759A3.132,3.132,0,0,0,33.067,268.65ZM21.7,272.736v.463H16.676v-1.424a2.461,2.461,0,0,1,2.454-2.454h2.6a2.431,2.431,0,0,1,1.2.315,2.493,2.493,0,0,1,.651.53A3.142,3.142,0,0,0,21.7,272.736Zm8.144.3v1.426h-7.5v-1.952l.014-.056.023-.083.016-.056a2.468,2.468,0,0,1,2.334-1.695l.067-.037h2.6a2.463,2.463,0,0,1,2.433,2.141.57.57,0,0,0,.014.153Zm5.677.164h-5v-.972l-.016-.058v-.113l-.032-.09a3.151,3.151,0,0,0-1.7-1.785,2.494,2.494,0,0,1,.5-.546,2.431,2.431,0,0,1,1.2-.315h2.6a2.461,2.461,0,0,1,2.454,2.454Z" transform="translate(-16.005 -268.65)" fill="#989bb0"/>
      </g>
    </g>
    <g id="Group_172" data-name="Group 172" transform="translate(18.061 11.287)">
      <g id="Group_171" data-name="Group 171" transform="translate(0)">
        <path id="Path_632" data-name="Path 632" d="M55.566,177.865a2.364,2.364,0,1,0,.69,1.671A2.355,2.355,0,0,0,55.566,177.865Zm-.475,2.864a1.692,1.692,0,1,1,.5-1.2A1.692,1.692,0,0,1,55.092,180.728Z" transform="translate(-51.529 -177.17)" fill="#989bb0"/>
      </g>
    </g>
    <g id="Group_178" data-name="Group 178" transform="translate(29.407 11.284)">
      <g id="Group_177" data-name="Group 177" transform="translate(0)">
        <path id="Path_634" data-name="Path 634" d="M249.928,177.13a2.364,2.364,0,1,0,2.362,2.366A2.364,2.364,0,0,0,249.928,177.13Zm1.195,3.56a1.692,1.692,0,1,1,0-2.393A1.692,1.692,0,0,1,251.123,180.69Z" transform="translate(-247.562 -177.13)" fill="#989bb0"/>
      </g>
    </g>
    <g id="Group_182" data-name="Group 182" transform="translate(23.738 12.546)">
      <g id="Group_181" data-name="Group 181">
        <path id="Path_635" data-name="Path 635" d="M153.653,199.619a2.361,2.361,0,1,0,.006,3.339A2.361,2.361,0,0,0,153.653,199.619Zm-1.668,3.369a1.692,1.692,0,1,1,1.693-1.692A1.692,1.692,0,0,1,151.985,202.988Z" transform="translate(-149.625 -198.93)" fill="#989bb0"/>
      </g>
    </g>
  </g>
</svg>
