<svg xmlns="http://www.w3.org/2000/svg" width="13.903" height="15.806" viewBox="0 0 13.903 15.806">
  <g id="exam" transform="translate(-15.841 -9.25)">
    <path id="Path_642" data-name="Path 642" d="M45.927,41.005H47.91a.253.253,0,0,0,0-.505H45.927a.253.253,0,0,0,0,.505Z" transform="translate(-25.527 -26.739)" fill="#989bb0"/>
    <path id="Path_643" data-name="Path 643" d="M28.154,55H26.927a.253.253,0,0,0-.253.253V56.48a.253.253,0,0,0,.253.253h1.227a.253.253,0,0,0,.253-.253V55.253A.253.253,0,0,0,28.154,55ZM27.9,56.227h-.722v-.722H27.9Z" transform="translate(-9.269 -39.146)" fill="#989bb0"/>
    <path id="Path_644" data-name="Path 644" d="M45.927,59.757H49.68a.253.253,0,1,0,0-.505H45.927a.253.253,0,1,0,0,.505Z" transform="translate(-25.527 -42.785)" fill="#989bb0"/>
    <path id="Path_645" data-name="Path 645" d="M28.154,73.754H26.927a.253.253,0,0,0-.253.253v1.226a.253.253,0,0,0,.253.253h1.227a.253.253,0,0,0,.253-.253V74.006A.253.253,0,0,0,28.154,73.754ZM27.9,74.981h-.722v-.722H27.9Z" transform="translate(-9.269 -55.193)" fill="#989bb0"/>
    <path id="Path_646" data-name="Path 646" d="M45.927,78.505H47.91a.253.253,0,0,0,0-.505H45.927a.253.253,0,0,0,0,.505Z" transform="translate(-25.527 -58.826)" fill="#989bb0"/>
    <path id="Path_647" data-name="Path 647" d="M28.154,92.506H26.927a.253.253,0,0,0-.253.253v1.227a.253.253,0,0,0,.253.253h1.227a.253.253,0,0,0,.253-.253V92.759A.253.253,0,0,0,28.154,92.506ZM27.9,93.733h-.722v-.722H27.9Z" transform="translate(-9.269 -71.239)" fill="#989bb0"/>
    <path id="Path_648" data-name="Path 648" d="M29.675,12.915a1.259,1.259,0,0,0-2.321-.14l-.544,1.119-.6,1.233V11.632a.253.253,0,0,0-.074-.179L24.007,9.324a.253.253,0,0,0-.179-.074H16.094a.253.253,0,0,0-.253.253V24.8a.253.253,0,0,0,.253.253h9.863a.253.253,0,0,0,.253-.253V20.88l3.407-7a1.25,1.25,0,0,0,.059-.961Zm-3.913,7.731-1.319.99-.036-1.649,2.746-5.645,1.356.66ZM24.081,10.112l1.267,1.267H24.081ZM16.346,24.55V9.755h7.229v1.876a.253.253,0,0,0,.253.253H25.7v4.281l-1.779,3.656a.252.252,0,0,0-.026.115l.042,1.943H20.4a.253.253,0,0,0,0,.505h3.753l.025,0,.022,0a.251.251,0,0,0,.152-.051L25.7,21.32v3.23ZM29.163,13.656l-.434.892-1.355-.659L27.807,13a.753.753,0,0,1,1.355.659Z" transform="translate(0 0)" fill="#989bb0"/>
    <path id="Path_649" data-name="Path 649" d="M29.4,38.736a.253.253,0,0,0-.354.048l-.491.646-.233-.233a.253.253,0,0,0-.359.357l.438.438a.253.253,0,0,0,.179.074H28.6a.253.253,0,0,0,.184-.1l.668-.875a.253.253,0,0,0-.048-.355Z" transform="translate(-10.31 -25.186)" fill="#989bb0"/>
  </g>
</svg>
