<svg id="chat" xmlns="http://www.w3.org/2000/svg" width="50" height="58" viewBox="0 0 50 58">
  <path id="Path" d="M24.167,0H4.833A4.821,4.821,0,0,0,0,4.808V12.5a4.821,4.821,0,0,0,4.833,4.808H8.7a.962.962,0,1,0,0-1.923H4.833a2.892,2.892,0,0,1-2.9-2.885V4.808a2.892,2.892,0,0,1,2.9-2.885H24.167a2.892,2.892,0,0,1,2.9,2.885V12.5a2.892,2.892,0,0,1-2.9,2.885.964.964,0,0,0-.967.962v5.375l-6.08-6.057a.97.97,0,0,0-.686-.279H12.567a.962.962,0,1,0,0,1.923h3.47l7.444,7.413a.97.97,0,0,0,.686.279.812.812,0,0,0,.367-.077.961.961,0,0,0,.6-.885V17.211A4.814,4.814,0,0,0,29,12.5V4.808A4.821,4.821,0,0,0,24.167,0Z" transform="translate(21 22)" fill="#565bf6"/>
  <path id="Path-2" data-name="Path" d="M5,2A1,1,0,0,0,5,0H1A1,1,0,0,0,1,2Z" transform="translate(29 27)" fill="#565bf6"/>
  <path id="Path-3" data-name="Path" d="M8,0H1A1,1,0,0,0,1,2H8A1,1,0,0,0,8,0Z" transform="translate(36 27)" fill="#565bf6"/>
  <path id="Path-4" data-name="Path" d="M0,1A1,1,0,0,0,1,2H7A1,1,0,0,0,7,0H1A1,1,0,0,0,0,1Z" transform="translate(26 32)" fill="#565bf6"/>
  <path id="Path-5" data-name="Path" d="M2,1A1,1,0,1,1,1,0,1,1,0,0,1,2,1Z" transform="translate(35 32)" fill="#565bf6"/>
  <path id="Path-6" data-name="Path" d="M2,1A1,1,0,1,1,1,0,1,1,0,0,1,2,1Z" transform="translate(39 32)" fill="#565bf6"/>
  <path id="Path-7" data-name="Path" d="M2,1A1,1,0,1,1,1,0,1,1,0,0,1,2,1Z" transform="translate(43 32)" fill="#565bf6"/>
  <path id="Path-8" data-name="Path" d="M6,0H1A1,1,0,0,0,1,2H6A1,1,0,0,0,6,0Z" transform="translate(14 21)" fill="#565bf6"/>
  <path id="Path-9" data-name="Path" d="M1,0A1,1,0,0,0,1,2H3A1,1,0,0,0,3,0Z" transform="translate(11 26)" fill="#565bf6"/>
  <path id="Path-10" data-name="Path" d="M2,1A1,1,0,1,1,1,0,1,1,0,0,1,2,1Z" transform="translate(17 26)" fill="#565bf6"/>
  <path id="Path-11" data-name="Path" d="M26.228,3.365a.945.945,0,0,0,1.3.346A.968.968,0,0,0,27.874,2.4a4.746,4.746,0,0,0-4.1-2.4H4.755A4.782,4.782,0,0,0,0,4.808V12.5a4.8,4.8,0,0,0,3.8,4.711v6.827a.961.961,0,0,0,.59.885A.788.788,0,0,0,4.755,25a.946.946,0,0,0,.675-.279l7.608-7.692a.973.973,0,0,0,0-1.365.947.947,0,0,0-1.35,0L5.706,21.721V16.346a.956.956,0,0,0-.951-.962A2.869,2.869,0,0,1,1.9,12.5V4.808A2.869,2.869,0,0,1,4.755,1.923h19.02A2.847,2.847,0,0,1,26.228,3.365Z" transform="translate(6 16)" fill="#565bf6"/>
  <path id="Path-12" data-name="Path" d="M1,0A1,1,0,0,0,1,2H11a1,1,0,0,0,0-2Z" transform="translate(13 52)" fill="#565bf6"/>
  <path id="Path-13" data-name="Path" d="M2,1A1,1,0,1,1,1,0,1,1,0,0,1,2,1Z" transform="translate(5 4)" fill="#565bf6"/>
  <path id="Path-14" data-name="Path" d="M2,1A1,1,0,1,1,1,0,1,1,0,0,1,2,1Z" transform="translate(9 4)" fill="#565bf6"/>
  <path id="Path-15" data-name="Path" d="M8,2A1,1,0,0,0,8,0H1A1,1,0,0,0,1,2Z" transform="translate(25 4)" fill="#565bf6"/>
  <path id="Path-16" data-name="Path" d="M.962,0A.981.981,0,0,0,0,1,.981.981,0,0,0,.962,2H24.038A.981.981,0,0,0,25,1a.981.981,0,0,0-.962-1Z" transform="translate(7 48)" fill="#565bf6"/>
  <path id="Path-17" data-name="Path" d="M0,1A.981.981,0,0,0,.962,2H24.038A.981.981,0,0,0,25,1a.981.981,0,0,0-.962-1H.962A.981.981,0,0,0,0,1Z" transform="translate(7 8)" fill="#565bf6"/>
  <path id="Path-18" data-name="Path" d="M37.05,43.5a.958.958,0,0,0-.95.967v8.7a2.875,2.875,0,0,1-2.85,2.9H4.75a2.875,2.875,0,0,1-2.85-2.9V4.833a2.875,2.875,0,0,1,2.85-2.9h28.5a2.875,2.875,0,0,1,2.85,2.9v14.5a.95.95,0,1,0,1.9,0V4.833A4.792,4.792,0,0,0,33.25,0H4.75A4.792,4.792,0,0,0,0,4.833V53.167A4.792,4.792,0,0,0,4.75,58h28.5A4.792,4.792,0,0,0,38,53.167v-8.7A.958.958,0,0,0,37.05,43.5Z" fill="#565bf6"/>
</svg>
