<svg id="settings" xmlns="http://www.w3.org/2000/svg" width="13" height="13" viewBox="0 0 13 13">
  <path id="Path_405" data-name="Path 405" d="M12.331,5.056H11.115a.467.467,0,0,1-.33-.8l.86-.86a.67.67,0,0,0,0-.947l-1.1-1.1a.685.685,0,0,0-.947,0l-.86.86a.467.467,0,0,1-.8-.33V.669A.67.67,0,0,0,7.275,0H5.725a.67.67,0,0,0-.669.669V1.885a.467.467,0,0,1-.8.33l-.86-.86a.685.685,0,0,0-.947,0l-1.1,1.1a.67.67,0,0,0,0,.947l.86.86a.467.467,0,0,1-.33.8H.669A.67.67,0,0,0,0,5.725v1.55a.67.67,0,0,0,.669.669H1.885a.467.467,0,0,1,.33.8l-.86.86a.67.67,0,0,0,0,.947l1.1,1.1a.685.685,0,0,0,.947,0l.86-.86a.467.467,0,0,1,.8.33v1.216A.67.67,0,0,0,5.725,13h1.55a.67.67,0,0,0,.669-.669V11.115a.467.467,0,0,1,.8-.33l.86.86a.685.685,0,0,0,.947,0l1.1-1.1a.67.67,0,0,0,0-.947l-.86-.86a.467.467,0,0,1,.331-.8h1.216A.67.67,0,0,0,13,7.275V5.725A.67.67,0,0,0,12.331,5.056Zm.188,2.22a.188.188,0,0,1-.188.188H11.115a.949.949,0,0,0-.671,1.619l.86.86a.188.188,0,0,1,0,.266l-1.1,1.1a.188.188,0,0,1-.266,0l-.86-.86a.949.949,0,0,0-1.619.671v1.216a.188.188,0,0,1-.188.188H5.725a.188.188,0,0,1-.188-.188V11.115a.934.934,0,0,0-.585-.876.959.959,0,0,0-.369-.075.935.935,0,0,0-.665.28l-.86.86a.188.188,0,0,1-.266,0l-1.1-1.1a.188.188,0,0,1,0-.266l.86-.86a.948.948,0,0,0-.671-1.619H.669a.188.188,0,0,1-.188-.188V5.725a.188.188,0,0,1,.188-.188H1.885a.949.949,0,0,0,.671-1.619l-.86-.86a.188.188,0,0,1,0-.266l1.1-1.1a.188.188,0,0,1,.266,0l.86.86a.949.949,0,0,0,1.619-.67V.669A.188.188,0,0,1,5.725.481h1.55a.188.188,0,0,1,.188.188V1.885a.949.949,0,0,0,1.619.671l.86-.86a.188.188,0,0,1,.266,0l1.1,1.1a.188.188,0,0,1,0,.266l-.86.86a.949.949,0,0,0,.671,1.619h1.216a.188.188,0,0,1,.188.188Z" fill="#989bb0"/>
  <path id="Path_406" data-name="Path 406" d="M20.167,18a2.167,2.167,0,1,0,2.167,2.167A2.169,2.169,0,0,0,20.167,18Zm0,3.852a1.685,1.685,0,1,1,1.685-1.685A1.687,1.687,0,0,1,20.167,21.852Z" transform="translate(-13.667 -13.667)" fill="#989bb0"/>
</svg>
