<svg id="_004-smile" data-name="004-smile" xmlns="http://www.w3.org/2000/svg" width="40" height="40" viewBox="0 0 40 40">
  <path id="Shape" d="M20,40A20,20,0,1,1,40,20,20.022,20.022,0,0,1,20,40ZM20,1.739A18.261,18.261,0,1,0,38.261,20,18.282,18.282,0,0,0,20,1.739Z" fill="#7456f6"/>
  <path id="Shape-2" data-name="Shape" d="M2.609,5.217A2.609,2.609,0,1,1,5.217,2.609,2.612,2.612,0,0,1,2.609,5.217Zm0-3.479a.87.87,0,1,0,.869.87A.871.871,0,0,0,2.609,1.739Z" transform="translate(10.435 13.913)" fill="#7456f6"/>
  <path id="Shape-3" data-name="Shape" d="M2.609,5.217A2.609,2.609,0,1,1,5.217,2.609,2.612,2.612,0,0,1,2.609,5.217Zm0-3.479a.87.87,0,1,0,.869.87A.871.871,0,0,0,2.609,1.739Z" transform="translate(24.348 13.913)" fill="#7456f6"/>
  <path id="Path" d="M17.1.222A.869.869,0,0,0,15.874.29,9.633,9.633,0,0,1,8.7,3.478,9.634,9.634,0,0,1,1.517.29a.87.87,0,0,0-1.3,1.16A11.376,11.376,0,0,0,8.7,5.217,11.376,11.376,0,0,0,17.17,1.45.87.87,0,0,0,17.1.222Z" transform="translate(11.304 24.348)" fill="#7456f6"/>
</svg>
