<svg xmlns="http://www.w3.org/2000/svg" width="40" height="40" viewBox="0 0 40 40">
  <g id="_016-happy-2" data-name="016-happy-2" opacity="0.35">
    <path id="Shape" d="M2.727,5.455A2.727,2.727,0,1,1,5.455,2.727,2.731,2.731,0,0,1,2.727,5.455Zm0-3.637a.909.909,0,1,0,.909.909A.91.91,0,0,0,2.727,1.818Z" transform="translate(24.545 11.818)" fill="#565bf6"/>
    <path id="Shape-2" data-name="Shape" d="M2.727,5.455A2.727,2.727,0,1,1,5.455,2.727,2.731,2.731,0,0,1,2.727,5.455Zm0-3.637a.909.909,0,1,0,.909.909A.91.91,0,0,0,2.727,1.818Z" transform="translate(10 11.818)" fill="#565bf6"/>
    <path id="Shape-3" data-name="Shape" d="M20,40A20,20,0,1,1,40,20,20.022,20.022,0,0,1,20,40ZM20,1.739A18.261,18.261,0,1,0,38.261,20,18.282,18.282,0,0,0,20,1.739Z" fill="#565bf6"/>
    <path id="Shape-4" data-name="Shape" d="M9.545,10A9.372,9.372,0,0,1,0,.833.852.852,0,0,1,.868,0H18.223a.852.852,0,0,1,.868.833A9.372,9.372,0,0,1,9.545,10ZM1.784,1.667A7.393,7.393,0,0,0,4.322,6.4a8.037,8.037,0,0,0,10.447,0,7.393,7.393,0,0,0,2.538-4.737H1.784Z" transform="translate(10.909 22.727)" fill="#565bf6"/>
  </g>
</svg>
