<svg xmlns="http://www.w3.org/2000/svg" width="40" height="40" viewBox="0 0 40 40">
  <g id="_008-sad-2" data-name="008-sad-2" opacity="0.35">
    <path id="Path" d="M8.7,0A11.377,11.377,0,0,0,.221,3.768a.87.87,0,1,0,1.3,1.16,9.674,9.674,0,0,1,14.357,0,.87.87,0,1,0,1.3-1.16A11.378,11.378,0,0,0,8.7,0Z" transform="translate(11.305 24.348)" fill="#69368b"/>
    <path id="Shape" d="M20,40A20,20,0,1,1,40,20,20.022,20.022,0,0,1,20,40ZM20,1.739A18.261,18.261,0,1,0,38.261,20,18.282,18.282,0,0,0,20,1.739Z" fill="#69368b"/>
    <path id="Path-2" data-name="Path" d="M7.826,0a.869.869,0,0,0-.87.87,2.609,2.609,0,0,1-5.217,0A.87.87,0,0,0,0,.87a4.348,4.348,0,1,0,8.7,0A.869.869,0,0,0,7.826,0Z" transform="translate(22.609 13.913)" fill="#69368b"/>
    <path id="Path-3" data-name="Path" d="M8.7.87a.87.87,0,0,0-1.739,0,2.609,2.609,0,0,1-5.217,0A.87.87,0,0,0,0,.87a4.348,4.348,0,1,0,8.7,0Z" transform="translate(8.696 13.913)" fill="#69368b"/>
  </g>
</svg>
