<svg id="_013-meh" data-name="013-meh" xmlns="http://www.w3.org/2000/svg" width="40" height="40" viewBox="0 0 40 40">
  <path id="Shape" d="M20,40A20,20,0,1,1,40,20,20.022,20.022,0,0,1,20,40ZM20,1.739A18.261,18.261,0,1,0,38.261,20,18.282,18.282,0,0,0,20,1.739Z" fill="#b556f6" opacity="0.353"/>
  <path id="Shape-2" data-name="Shape" d="M2.609,5.217A2.609,2.609,0,1,1,5.217,2.609,2.612,2.612,0,0,1,2.609,5.217Zm0-3.479a.87.87,0,1,0,.869.87A.871.871,0,0,0,2.609,1.739Z" transform="translate(10.435 13.913)" fill="#b556f6" opacity="0.353"/>
  <path id="Shape-3" data-name="Shape" d="M2.609,5.217A2.609,2.609,0,1,1,5.217,2.609,2.612,2.612,0,0,1,2.609,5.217Zm0-3.479a.87.87,0,1,0,.869.87A.871.871,0,0,0,2.609,1.739Z" transform="translate(24.348 13.913)" fill="#b556f6" opacity="0.353"/>
  <path id="Path" d="M18.261,0H.87a.87.87,0,0,0,0,1.739H18.261a.87.87,0,0,0,0-1.739Z" transform="translate(10.435 24.348)" fill="#b556f6" opacity="0.353"/>
</svg>
