<svg xmlns="http://www.w3.org/2000/svg" width="39.783" height="32.625" viewBox="0 0 39.783 32.625">
  <path id="Forma_1" data-name="Forma 1" d="M27.122,32.625H6.28a6.328,6.328,0,0,1-.4-12.641v-.376a9.441,9.441,0,0,1,11.977-9.121,8.31,8.31,0,0,1,10.3-3.6l.024.009A8.313,8.313,0,0,1,32.8,17.7a8.425,8.425,0,0,1-.4.845l-.12.216c.147.13.288.265.424.4a7.887,7.887,0,0,1-5.571,13.466ZM1.439,26.288a4.874,4.874,0,0,0,4.869,4.879H27.13a6.434,6.434,0,1,0-2.871-12.192.723.723,0,0,1-1.04-.544A7.984,7.984,0,0,0,7.354,19.6v.508c.01.163.023.314.04.453a.725.725,0,0,1-.76.861H6.3a4.856,4.856,0,0,0-3.443,1.426l.008,0A4.877,4.877,0,0,0,1.439,26.288ZM31.107,17.93v-.065a6.943,6.943,0,0,0,.344-.708,6.874,6.874,0,0,0-12.237-6.141,9.465,9.465,0,0,1,1.758,1.046,4.8,4.8,0,0,1,5.863-1.914.725.725,0,0,1-.533,1.346,3.378,3.378,0,0,0-4.2,1.546,9.431,9.431,0,0,1,2.386,4.281,7.9,7.9,0,0,1,6.624.609Zm7.732,1.53-3-.821a.727.727,0,0,1,.4-1.4l3,.822a.727.727,0,1,1-.4,1.4Zm-3.464-7.3a.725.725,0,0,1,.521-.881l3.011-.8a.725.725,0,0,1,.364,1.4l-3.01.8h0a.724.724,0,0,1-.883-.521ZM32.529,7.317A.729.729,0,0,1,32.62,6.29L34.835,4.1a.767.767,0,0,1,.085-.086.729.729,0,0,1,.935,1.119L33.642,7.323a.687.687,0,0,1-.085.085.728.728,0,0,1-1.027-.091Zm-16.186-.09L14.152,5.012a.764.764,0,0,1-.085-.086.729.729,0,0,1,1.118-.936l2.191,2.215a.729.729,0,0,1-1.033,1.022ZM27.8,4.5l-.025-.007a.726.726,0,0,1-.487-.9l.821-3a.727.727,0,0,1,1.4.4l-.8,3-.005.018a.725.725,0,0,1-.9.491Zm-6.467-.549-.8-3.012C20.525.918,20.52.9,20.515.876a.725.725,0,0,1,1.418-.3l.8,3.012c.006.021.012.041.016.063a.725.725,0,1,1-1.418.3Z" transform="translate(0 0)" fill="#fdca40"/>
</svg>
