<svg xmlns="http://www.w3.org/2000/svg" width="367.502" height="311.042" viewBox="0 0 367.502 311.042">
  <g id="Group_142" data-name="Group 142" transform="translate(-489.787 -167.073)">
    <path id="Path_550" data-name="Path 550" d="M1051.249,427.955c0,22.912-14.062,41.486-31.408,41.486H923.093c-17.346,0-31.408-18.574-31.408-41.486V208.56c0-22.912,14.062-41.487,31.408-41.487h96.748c17.346,0,31.408,18.574,31.408,41.487Z" transform="translate(-295.766 0)" fill="#b2b2bd"/>
    <path id="Path_551" data-name="Path 551" d="M1010.336,427.955c0,22.912-14.061,41.486-31.408,41.486H882.18c-17.346,0-31.408-18.574-31.408-41.486V208.56c0-22.912,14.062-41.487,31.408-41.487h96.748c17.347,0,31.408,18.574,31.408,41.487Z" transform="translate(-265.657 0)" fill="#cdced9"/>
    <path id="Path_552" data-name="Path 552" d="M1026.3,478.89c0,22.463-12.486,23.763-27.889,23.763H912.5c-15.4,0-27.89-1.3-27.89-23.763v-215.1c0-22.464,12.486-22.863,27.89-22.863h85.912c15.4,0,27.889.4,27.889,22.863Z" transform="translate(-290.561 -54.354)" fill="#ececf7"/>
    <g id="Group_120" data-name="Group 120" transform="translate(489.787 328.127)">
      <g id="Group_118" data-name="Group 118" transform="translate(33.585)">
        <path id="Path_553" data-name="Path 553" d="M648.625,861.542c-.3-17.048-5.9-14-.761-22.225s6.584-20.536.929-29.571-.35-28.573-10.955-32.1c-13.775-4.584-18.055,14.335-13.9,25.752s-13.384,22.069-4.358,34.04c13.7,18.17-7.428,24.721,8.409,40.826,6.7,6.813,8.745,22.183,8.745,22.183S648.927,878.59,648.625,861.542Z" transform="translate(-616.966 -776.944)" fill="#addae8"/>
        <path id="Path_554" data-name="Path 554" d="M675.447,815.789s-2.967,20.386.521,27.9c3.529,7.594,6.706,17.054,3.944,24.373s-5.294,17.53-1.849,27.912-.339,24.4-.339,24.4,2.459-13.739-1.339-19.591c-4.138-6.379-5.2-17.758-.181-35.6,2.592-9.213-1.823-12.389-4.42-22.776C668.374,828.759,675.447,815.789,675.447,815.789Z" transform="translate(-656.624 -805.531)" fill="#fff"/>
      </g>
      <g id="Group_119" data-name="Group 119" transform="translate(0 10.471)">
        <path id="Path_555" data-name="Path 555" d="M541.521,890.224c-6.718-15.671-10.747-10.733-9.1-20.292s-1.657-21.5-10.306-27.732S511,815.875,499.851,816.613c-14.486.958-11.3,20.094-3.141,29.094s-4.059,25.488,8.819,33.165c19.545,11.653,2.457,25.695,23.2,34.627,8.775,3.778,16.475,17.239,16.475,17.239S548.24,905.9,541.521,890.224Z" transform="translate(-489.787 -816.593)" fill="#77afcc"/>
        <path id="Path_556" data-name="Path 556" d="M534,853.109s4.952,20,11.018,25.632c6.136,5.7,12.65,13.261,12.857,21.081s1.717,18.23,8.829,26.544,8.9,22.72,8.9,22.72-2.911-13.65-8.637-17.634c-6.242-4.343-11.52-14.479-13.61-32.894-1.079-9.509-6.368-10.783-12.694-19.419C532.35,867.788,534,853.109,534,853.109Z" transform="translate(-522.227 -843.466)" fill="#fff"/>
      </g>
      <path id="Path_557" data-name="Path 557" d="M637.676,1235.25l20.761-.107,5.48-31.215-31.269.159Z" transform="translate(-594.922 -1091.17)" fill="#ddedf2"/>
    </g>
    <g id="Group_124" data-name="Group 124" transform="translate(756.86 363.787)">
      <g id="Group_121" data-name="Group 121" transform="translate(43.05 31.24)">
        <path id="Path_558" data-name="Path 558" d="M1674.124,1061.3c-5.064-4.489-7.222-11.07-6.5-15.056-2.741,4.407-3.24,6.9-3.458,11.985-.547,12.782,12.714,10.435,12.714,10.435s-1.026,16.47,12.806,14.86c10.485-1.221,16.741-4.877,20.967-10.283-2.392.3-9.271-.482-13.439-1.881-6.148-2.063-4.843-6.923-5.328-8.339-.636-1.859,1.289-2.069,2.083-1.831,2.262.679,7.524,9.111,13.129,10.515a58.412,58.412,0,0,0,6.653,1.323c3.327-4.4,3.057-11.681,3.68-13.64,4.032-12.652,4.1-21.369,4.1-21.369s-12.8-3.538-20-6a27.072,27.072,0,0,0-11.265-1.676,8.4,8.4,0,0,0,.219,4.4c1.016,3.108,5.349,6.124,4.993,10.432-.244,2.936-2.15,3.884-5.135,2.248-6.005-3.291-1.911-14.995-1.311-16.979a30.85,30.85,0,0,0-21.35,12.374c.383,1.8-.418,6.061,1.565,9.185,2.825,4.452,7.379,4,7.875,7.283S1675.716,1062.707,1674.124,1061.3Zm28.511-16.14c-1.3.519-2.311-1.748-2.946-5.776a6.18,6.18,0,0,1,2.464-6.042s-2.261,2.38-.941,4.952S1705.114,1044.17,1702.635,1045.157Zm-14.264,7.341s-5.109-1.6-7.012-5.229c-3.325-6.349.606-12.916.606-12.916s-1.638,4.479,1.174,11.033C1684.308,1048.111,1688.371,1052.5,1688.371,1052.5Zm-5.869,3.588s-4.33-2.578-6.277-5.408c-4.394-6.378-2.439-12.084-2.439-12.084s-.478,7.566,3.846,12.455c3.363,3.8,5.493,4.3,5.493,4.3Zm2.057,9.9c.721.523,1.663,5.463,4.527,7.857,2.284,1.91,9.353,5.694,9.353,5.694a51.517,51.517,0,0,1-8.516-2.625c-5.069-1.988-7.727-7.81-8.007-9.579S1683.075,1064.911,1684.559,1065.986Zm23.054-8.014c3.29,2.394,8.4,1.577,8.4,1.577s-6.323,1.875-9.189.945-5.563-3.2-5-4.433C1703.114,1053.231,1705.795,1056.649,1707.613,1057.972Z" transform="translate(-1664.148 -1030.28)" fill="#77afcc"/>
        <path id="Path_559" data-name="Path 559" d="M1720.4,1064.772s-36.384,17.983-46.729,36.8a58.272,58.272,0,0,0-5.068,11.725l-2.886-2.709s4.05-7.355,6.624-11.448C1686.067,1077.316,1720.4,1064.772,1720.4,1064.772Z" transform="translate(-1665.299 -1055.663)" fill="#90c9d6"/>
      </g>
      <g id="Group_122" data-name="Group 122" transform="translate(10.75 0)">
        <path id="Path_560" data-name="Path 560" d="M1560.019,964.828c-7.635-.771-13.983-5.393-15.964-9.537.4,5.872,1.593,8.492,4.767,13.318,7.973,12.121,18.614,1.167,18.614,1.167s9.978,15.831,21.635,5.178c8.835-8.078,12.164-15.588,12.468-23.363-2,1.862-8.849,5.706-13.609,7.182-7.023,2.179-9.047-3.157-10.432-4.137-1.819-1.288-.186-2.757.7-3.064,2.531-.876,12.962,3.39,19.049.966a65.683,65.683,0,0,0,7-3.2c.147-6.25-4.933-12.771-5.658-14.987-4.681-14.311-10.4-22.372-10.4-22.372s-14.125,5.236-22.376,7.741a30.74,30.74,0,0,0-11.474,5.929,9.527,9.527,0,0,0,3.118,3.9c3,2.185,8.981,2.085,11.51,6.286,1.723,2.862.6,5-3.232,5.472-7.707.956-11.7-12.525-12.464-14.749a34.981,34.981,0,0,0-11.433,25.54c1.547,1.4,3.635,5.853,7.53,7.412,5.551,2.221,9.441-1.214,12.074,1.478S1562.419,965.071,1560.019,964.828Zm15.523-33.753c-.854,1.343-3.285-.074-6.54-3.359a7.008,7.008,0,0,1-1.739-7.191s-.5,3.688,2.418,5.178S1577.169,928.525,1575.543,931.075Zm-8.253,16.212s-5.76,1.918-9.918-.161c-7.266-3.635-8.005-12.281-8.005-12.281s1.463,5.205,8.4,9.369C1560.645,945.946,1567.29,947.287,1567.29,947.287Zm-3.018,7.192s-5.693.5-9.361-.811c-8.27-2.954-10.255-9.5-10.255-9.5s4.576,7.276,11.8,8.905c5.615,1.268,7.907.318,7.907.318Zm8.455,7.743c1.012,0,5.153,3.922,9.374,4.225,3.369.242,12.38-.965,12.38-.965a58.267,58.267,0,0,1-9.573,3.232c-5.983,1.533-12.286-2.058-13.718-3.5S1570.65,962.218,1572.727,962.222Zm15.893-22.659c4.615.02,8.77-4.117,8.77-4.117s-4.574,5.917-7.828,6.962-7.238.746-7.536-.764C1581.34,938.185,1586.069,939.552,1588.62,939.563Z" transform="translate(-1541.835 -911.981)" fill="#90c9d6"/>
        <path id="Path_561" data-name="Path 561" d="M1652.882,922.486s-21.543,40.67-18.579,64.841a66.078,66.078,0,0,0,3.113,14.147l-4.45-.579s-1.152-9.451-1.5-14.921C1629.623,956.79,1652.882,922.486,1652.882,922.486Z" transform="translate(-1607.721 -919.712)" fill="#77afcc"/>
      </g>
      <g id="Group_123" data-name="Group 123" transform="translate(0 41.746)">
        <path id="Path_562" data-name="Path 562" d="M1531.034,1093.936c.86-2.326,4.123-1.307,6.864-4.134,1.923-1.985,1.982-5.221,2.535-6.481a23.041,23.041,0,0,0-13.742-12.285c.139,1.543,1.361,10.723-3.53,12.221-2.43.745-3.681-.238-3.414-2.422.391-3.206,4.018-4.755,5.232-6.875a6.266,6.266,0,0,0,.826-3.184,20.255,20.255,0,0,0-8.494-.48c-5.636.712-15.536,1.361-15.536,1.361a59.6,59.6,0,0,0-.24,16.251c.161,1.527-1.141,6.814.627,10.533a43.142,43.142,0,0,0,5.067.041c4.313-.179,9.438-5.548,11.2-5.7.617-.054,1.994.391,1.246,1.654-.569.962-.351,4.715-5.162,5.293a31.715,31.715,0,0,1-10.113-.661c2.273,4.6,6.295,8.216,13.78,10.7,9.872,3.272,11.616-8.929,11.616-8.929s9.345,3.725,10.88-5.708c.61-3.754.623-5.65-.714-9.289-.078,3.024-2.653,7.511-7.035,10.027C1531.541,1096.653,1530.173,1096.262,1531.034,1093.936Zm-14.445-19c1.355-1.682.062-3.765.062-3.765a4.618,4.618,0,0,1,.888,4.792c-1.075,2.851-2.156,4.357-3.03,3.779C1512.846,1078.642,1515.233,1076.613,1516.589,1074.933Zm12.143,7.926c3.05-4.368,2.531-7.891,2.531-7.891s1.88,5.4-1.512,9.538c-1.941,2.369-5.921,2.763-5.921,2.763S1527.466,1084.676,1528.732,1082.859Zm-1.5,7.294s1.634-.046,4.67-2.317c3.9-2.922,4.7-8.527,4.7-8.527a10.711,10.711,0,0,1-3.613,8.47,17.97,17.97,0,0,1-5.411,3Zm-.931,8.944c-.473,1.253-3.3,5.107-7.307,5.794a38.506,38.506,0,0,1-6.625.631,64.779,64.779,0,0,0,7.7-2.749c2.458-1.317,3.894-4.788,4.5-5.061C1525.825,1097.15,1526.776,1097.844,1526.3,1099.1Zm-12.851-11.26c.226.989-2.09,2.242-4.327,2.487s-6.579-2.082-6.579-2.082,3.611,1.371,6.381.119C1510.457,1087.667,1512.936,1085.573,1513.453,1087.836Z" transform="translate(-1501.129 -1070.064)" fill="#addae8"/>
        <path id="Path_563" data-name="Path 563" d="M1509.1,1081.2s23.889,18.663,28.6,34a43.459,43.459,0,0,1,1.931,9.344l2.522-1.544s-1.848-5.994-3.111-9.377C1532.313,1095.572,1509.1,1081.2,1509.1,1081.2Z" transform="translate(-1506.998 -1078.258)" fill="#95c3d1"/>
      </g>
      <path id="Path_564" data-name="Path 564" d="M1602.066,1238.866l19.544-.568,4.456-29.515-29.438.856Z" transform="translate(-1571.409 -1130.404)" fill="#ddedf2"/>
    </g>
    <g id="Group_126" data-name="Group 126" transform="translate(605.502 194.609)">
      <g id="Group_125" data-name="Group 125" transform="translate(0)">
        <path id="Path_565" data-name="Path 565" d="M959.513,287.116a15.77,15.77,0,1,0-26.176,11.844c.995-4.49,3.889-8.027,7.565-9.25a7.149,7.149,0,1,1,5.681,0c3.678,1.223,6.572,4.76,7.567,9.25A15.73,15.73,0,0,0,959.513,287.116Z" transform="translate(-927.974 -271.346)" fill="#b2b2bd"/>
        <path id="Path_566" data-name="Path 566" d="M961.531,302.682a7.148,7.148,0,1,0-5.681,0c-3.677,1.223-6.571,4.76-7.566,9.25a15.758,15.758,0,0,0,20.814,0C968.1,307.442,965.209,303.905,961.531,302.682Z" transform="translate(-942.92 -284.319)" fill="#d5d5db"/>
      </g>
      <path id="Path_567" data-name="Path 567" d="M1144.269,306.53c0,3.847-2.525,6.965-5.64,6.965h-72.52c-3.115,0-5.641-3.118-5.641-6.965v-19c0-3.847,2.526-6.964,5.641-6.964h72.52c3.115,0,5.64,3.117,5.64,6.964Z" transform="translate(-1025.479 -278.128)" fill="#fefeff"/>
      <path id="Path_568" data-name="Path 568" d="M1039.654,280.562h20.772l-15.087,7.087Z" transform="translate(-1010.162 -278.128)" fill="#fefeff"/>
      <path id="Rectangle_49" data-name="Rectangle 49" d="M1.745,0h33.65a1.746,1.746,0,0,1,1.746,1.746v0a1.746,1.746,0,0,1-1.746,1.746H1.746A1.746,1.746,0,0,1,0,1.746v0A1.745,1.745,0,0,1,1.745,0Z" transform="translate(42.761 8.224)" fill="#b2b2bd"/>
      <path id="Path_569" data-name="Path 569" d="M1159.809,333.748c0,.445-.679.806-1.517.806h-66.877c-.837,0-1.517-.361-1.517-.806v-1.881c0-.445.68-.805,1.517-.805h66.877c.838,0,1.517.36,1.517.805Z" transform="translate(-1047.138 -315.292)" fill="#d6d6d8"/>
      <path id="Path_570" data-name="Path 570" d="M1159.809,363.156c0,.444-.679.806-1.517.806h-66.877c-.837,0-1.517-.362-1.517-.806v-1.88c0-.445.68-.806,1.517-.806h66.877c.838,0,1.517.361,1.517.806Z" transform="translate(-1047.138 -336.934)" fill="#d6d6d8"/>
    </g>
    <g id="Group_128" data-name="Group 128" transform="translate(605.502 334.738)">
      <g id="Group_127" data-name="Group 127" transform="translate(0 0)">
        <path id="Path_571" data-name="Path 571" d="M959.513,817.75a15.77,15.77,0,1,0-26.176,11.844c.995-4.49,3.889-8.027,7.565-9.25a7.149,7.149,0,1,1,5.681,0c3.678,1.223,6.572,4.76,7.567,9.25A15.73,15.73,0,0,0,959.513,817.75Z" transform="translate(-927.974 -801.98)" fill="#b2b2bd"/>
        <path id="Path_572" data-name="Path 572" d="M961.531,833.319a7.148,7.148,0,1,0-5.681,0c-3.677,1.223-6.571,4.76-7.566,9.25a15.757,15.757,0,0,0,20.814,0C968.1,838.079,965.209,834.542,961.531,833.319Z" transform="translate(-942.92 -814.955)" fill="#d5d5db"/>
      </g>
      <path id="Path_573" data-name="Path 573" d="M1144.269,837.167c0,3.847-2.525,6.965-5.64,6.965h-72.52c-3.115,0-5.641-3.118-5.641-6.965v-19c0-3.846,2.526-6.964,5.641-6.964h72.52c3.115,0,5.64,3.118,5.64,6.964Z" transform="translate(-1025.479 -808.764)" fill="#fefeff"/>
      <path id="Path_574" data-name="Path 574" d="M1039.654,811.2h20.772l-15.087,7.088Z" transform="translate(-1010.162 -808.765)" fill="#fefeff"/>
      <path id="Rectangle_50" data-name="Rectangle 50" d="M1.746,0H35.395a1.746,1.746,0,0,1,1.746,1.746v0a1.746,1.746,0,0,1-1.746,1.746H1.746A1.746,1.746,0,0,1,0,1.747v0A1.746,1.746,0,0,1,1.746,0Z" transform="translate(42.761 8.224)" fill="#b2b2bd"/>
      <path id="Path_575" data-name="Path 575" d="M1159.809,864.383c0,.445-.679.806-1.517.806h-66.877c-.837,0-1.517-.361-1.517-.806V862.5c0-.444.68-.805,1.517-.805h66.877c.838,0,1.517.362,1.517.805Z" transform="translate(-1047.138 -845.927)" fill="#d6d6d8"/>
      <path id="Path_576" data-name="Path 576" d="M1159.809,893.792c0,.445-.679.806-1.517.806h-66.877c-.837,0-1.517-.361-1.517-.806v-1.881c0-.444.68-.806,1.517-.806h66.877c.838,0,1.517.361,1.517.806Z" transform="translate(-1047.138 -867.569)" fill="#d6d6d8"/>
    </g>
    <g id="Group_130" data-name="Group 130" transform="translate(605.502 245.087)">
      <g id="Group_129" data-name="Group 129" transform="translate(87.25)">
        <path id="Path_577" data-name="Path 577" d="M1258.369,478.265a15.77,15.77,0,1,1,26.176,11.844c-.994-4.49-3.888-8.027-7.565-9.25a7.148,7.148,0,1,0-5.682,0c-3.678,1.223-6.572,4.76-7.566,9.25A15.731,15.731,0,0,1,1258.369,478.265Z" transform="translate(-1258.369 -462.495)" fill="#b2b2bd"/>
        <path id="Path_578" data-name="Path 578" d="M1286.243,493.833a7.148,7.148,0,1,1,5.682,0c3.677,1.223,6.571,4.76,7.565,9.25a15.756,15.756,0,0,1-20.813,0C1279.67,498.593,1282.564,495.056,1286.243,493.833Z" transform="translate(-1273.313 -475.469)" fill="#d5d5db"/>
      </g>
      <path id="Path_579" data-name="Path 579" d="M927.974,497.681c0,3.847,2.525,6.966,5.64,6.966h72.52c3.115,0,5.641-3.119,5.641-6.966v-19c0-3.846-2.526-6.964-5.641-6.964h-72.52c-3.115,0-5.64,3.118-5.64,6.964Z" transform="translate(-927.974 -469.279)" fill="#fefeff"/>
      <path id="Path_580" data-name="Path 580" d="M1208.234,471.713h-20.772l15.086,7.087Z" transform="translate(-1118.937 -469.279)" fill="#fefeff"/>
      <path id="Rectangle_51" data-name="Rectangle 51" d="M1.746,0H35.395a1.746,1.746,0,0,1,1.746,1.746v0A1.745,1.745,0,0,1,35.4,3.492H1.746A1.746,1.746,0,0,1,0,1.746v0A1.746,1.746,0,0,1,1.746,0Z" transform="translate(38.888 8.225)" fill="#b2b2bd"/>
      <path id="Path_581" data-name="Path 581" d="M951.143,524.9c0,.445.678.806,1.516.806h66.877c.837,0,1.517-.361,1.517-.806v-1.88c0-.444-.68-.806-1.517-.806H952.659c-.838,0-1.516.361-1.516.806Z" transform="translate(-945.025 -506.442)" fill="#d6d6d8"/>
      <path id="Path_582" data-name="Path 582" d="M951.143,554.307c0,.445.678.806,1.516.806h66.877c.837,0,1.517-.361,1.517-.806v-1.88c0-.445-.68-.806-1.517-.806H952.659c-.838,0-1.516.361-1.516.806Z" transform="translate(-945.025 -528.084)" fill="#d6d6d8"/>
    </g>
    <g id="Group_133" data-name="Group 133" transform="translate(597.22 289.252)">
      <g id="Group_131" data-name="Group 131" transform="translate(95.532 0)">
        <path id="Path_583" data-name="Path 583" d="M1258.369,645.507a15.77,15.77,0,1,1,26.176,11.844c-.994-4.49-3.888-8.027-7.565-9.251a7.148,7.148,0,1,0-5.682,0c-3.678,1.223-6.572,4.76-7.566,9.251A15.732,15.732,0,0,1,1258.369,645.507Z" transform="translate(-1258.369 -629.737)" fill="#b2b2bd"/>
        <path id="Path_584" data-name="Path 584" d="M1286.243,661.074a7.148,7.148,0,1,1,5.682,0c3.677,1.224,6.571,4.76,7.565,9.251a15.758,15.758,0,0,1-20.813,0C1279.67,665.835,1282.564,662.3,1286.243,661.074Z" transform="translate(-1273.313 -642.711)" fill="#d5d5db"/>
      </g>
      <path id="Path_585" data-name="Path 585" d="M927.974,664.923c0,3.847,2.525,6.966,5.64,6.966h72.52c3.115,0,5.641-3.119,5.641-6.966v-19c0-3.847-2.526-6.964-5.641-6.964h-72.52c-3.115,0-5.64,3.118-5.64,6.964Z" transform="translate(-919.692 -636.521)" fill="#fefeff"/>
      <path id="Path_586" data-name="Path 586" d="M1208.234,638.955h-20.772l15.086,7.088Z" transform="translate(-1110.655 -636.52)" fill="#fefeff"/>
      <path id="Rectangle_52" data-name="Rectangle 52" d="M1.746,0H35.395a1.746,1.746,0,0,1,1.746,1.746v0a1.746,1.746,0,0,1-1.746,1.746H1.746A1.746,1.746,0,0,1,0,1.746v0A1.746,1.746,0,0,1,1.746,0Z" transform="translate(47.171 8.225)" fill="#b2b2bd"/>
      <path id="Path_587" data-name="Path 587" d="M951.143,692.14c0,.445.678.806,1.516.806h66.877c.837,0,1.517-.362,1.517-.806v-1.88c0-.445-.68-.806-1.517-.806H952.659c-.838,0-1.516.361-1.516.806Z" transform="translate(-936.742 -673.684)" fill="#d6d6d8"/>
      <path id="Path_588" data-name="Path 588" d="M951.143,721.55c0,.445.678.806,1.516.806h66.877c.837,0,1.517-.361,1.517-.806V719.67c0-.444-.68-.8-1.517-.8H952.659c-.838,0-1.516.361-1.516.8Z" transform="translate(-936.742 -695.328)" fill="#d6d6d8"/>
      <g id="Group_132" data-name="Group 132" transform="translate(0 11.181)">
        <path id="Path_589" data-name="Path 589" d="M909.283,678.411a6.336,6.336,0,1,1-6.336-6.336A6.336,6.336,0,0,1,909.283,678.411Z" transform="translate(-896.611 -672.075)" fill="#52ce29"/>
        <path id="Path_590" data-name="Path 590" d="M911.651,681.211a.871.871,0,0,0-1.221.161l-4.181,5.45-2.58-1.978a.9.9,0,0,0-1.074,1.4l3.4,2.606a.812.812,0,0,0,1.1-.266c.018-.024.031-.049.048-.075a.7.7,0,0,0,.048-.051l4.622-6.024A.872.872,0,0,0,911.651,681.211Z" transform="translate(-900.837 -678.666)" fill="#fefeff"/>
      </g>
    </g>
    <g id="Group_136" data-name="Group 136" transform="translate(597.22 382.65)">
      <g id="Group_134" data-name="Group 134" transform="translate(95.532)">
        <path id="Path_591" data-name="Path 591" d="M1258.369,999.181a15.77,15.77,0,1,1,26.176,11.844c-.994-4.49-3.888-8.027-7.565-9.25a7.148,7.148,0,1,0-5.682,0c-3.678,1.223-6.572,4.76-7.566,9.25A15.73,15.73,0,0,1,1258.369,999.181Z" transform="translate(-1258.369 -983.411)" fill="#b2b2bd"/>
        <path id="Path_592" data-name="Path 592" d="M1286.243,1014.747a7.148,7.148,0,1,1,5.682,0c3.677,1.223,6.571,4.759,7.565,9.25a15.756,15.756,0,0,1-20.813,0C1279.67,1019.506,1282.564,1015.97,1286.243,1014.747Z" transform="translate(-1273.313 -996.383)" fill="#d5d5db"/>
      </g>
      <path id="Path_593" data-name="Path 593" d="M927.974,1018.6c0,3.847,2.525,6.966,5.64,6.966h72.52c3.115,0,5.641-3.119,5.641-6.966v-19c0-3.847-2.526-6.965-5.641-6.965h-72.52c-3.115,0-5.64,3.118-5.64,6.965Z" transform="translate(-919.692 -990.193)" fill="#fefeff"/>
      <path id="Path_594" data-name="Path 594" d="M1208.234,992.627h-20.772l15.086,7.088Z" transform="translate(-1110.655 -990.193)" fill="#fefeff"/>
      <path id="Rectangle_53" data-name="Rectangle 53" d="M1.745,0H35.395a1.746,1.746,0,0,1,1.746,1.746v0a1.746,1.746,0,0,1-1.746,1.746H1.746A1.746,1.746,0,0,1,0,1.746v0A1.745,1.745,0,0,1,1.745,0Z" transform="translate(47.171 8.224)" fill="#b2b2bd"/>
      <path id="Path_595" data-name="Path 595" d="M951.143,1045.813c0,.445.678.806,1.516.806h66.877c.837,0,1.517-.361,1.517-.806v-1.88c0-.445-.68-.806-1.517-.806H952.659c-.838,0-1.516.361-1.516.806Z" transform="translate(-936.742 -1027.357)" fill="#d6d6d8"/>
      <path id="Path_596" data-name="Path 596" d="M951.143,1075.221c0,.445.678.806,1.516.806h66.877c.837,0,1.517-.361,1.517-.806v-1.88c0-.444-.68-.806-1.517-.806H952.659c-.838,0-1.516.361-1.516.806Z" transform="translate(-936.742 -1048.999)" fill="#d6d6d8"/>
      <g id="Group_135" data-name="Group 135" transform="translate(0 11.18)">
        <path id="Path_597" data-name="Path 597" d="M909.283,1032.083a6.336,6.336,0,1,1-6.336-6.336A6.336,6.336,0,0,1,909.283,1032.083Z" transform="translate(-896.611 -1025.747)" fill="#52ce29"/>
        <path id="Path_598" data-name="Path 598" d="M911.651,1034.884a.87.87,0,0,0-1.221.161l-4.181,5.45-2.58-1.978a.9.9,0,0,0-1.074,1.4l3.4,2.606a.812.812,0,0,0,1.1-.267c.018-.023.031-.05.048-.074s.034-.033.048-.051l4.622-6.024A.871.871,0,0,0,911.651,1034.884Z" transform="translate(-900.837 -1032.338)" fill="#fefeff"/>
      </g>
    </g>
    <g id="Group_139" data-name="Group 139" transform="translate(679.523 225.629)">
      <g id="Group_138" data-name="Group 138" transform="translate(53.211)">
        <path id="Path_599" data-name="Path 599" d="M1433.542,445.973c2.256-3.947,5.854-6.722,5.6-11.621a14,14,0,0,0-4.636-9.576,12.119,12.119,0,0,0-10.02-2.918c-12.263,2.057-14.8,22.006-12.478,31.87,2.578,10.967,10.1,2.655,13.617,1.187-.337.141-.612,11.746,0,16.449,4.578-.723,9.8-1.831,14.392-2.489a71.4,71.4,0,0,1-6.911-22.9" transform="translate(-1410.85 -413.008)" fill="#e2ab86"/>
        <g id="Group_137" data-name="Group 137" transform="translate(0.388)">
          <path id="Path_600" data-name="Path 600" d="M1537.512,423.37s.069-.012.187-.024l-.19-.065C1537.512,423.338,1537.512,423.37,1537.512,423.37Z" transform="translate(-1504.163 -414.178)" fill="none"/>
          <path id="Path_601" data-name="Path 601" d="M1460.823,467.1c-2.047-6.741-14.67-4.87-14.673-4.869a37.5,37.5,0,0,1,.342,10.717c1.994-4.357,4.983-4.388,6.72-2.835,1.994,1.785.791,2.686-2.2,8.382,3.518,2.441,5.717,8.415,11.7,13.038-.243-6.054,3.329-9.7,7.377-13.1C1465.566,477.443,1462.315,472.016,1460.823,467.1Z" transform="translate(-1436.93 -442.668)" fill="#ba8b6a"/>
          <path id="Path_602" data-name="Path 602" d="M1454.027,402.189c-1.324-3.865-6.72-5.511-8.829-4.227-.259-1.1-1.793-7.24-4.172-9.152,0,0,.025,1.454-.05,3.013a14.877,14.877,0,0,0-7.151-2.5,17.075,17.075,0,0,0-15.247,6.142c-.121.151-.233.3-.346.441h0a28.31,28.31,0,0,1-7,3.815c.887,3.618,7.295-.086,9.22,8.653,0,0,12.626-1.872,14.673,4.868,1.492,4.914,4.743,10.341,9.263,11.339C1450.745,419.258,1458.266,414.564,1454.027,402.189ZM1444.585,398s0-.032,0-.088l.19.065C1444.655,397.989,1444.585,398,1444.585,398Z" transform="translate(-1411.236 -388.81)" fill="#3f2e0f"/>
        </g>
        <path id="Path_603" data-name="Path 603" d="M1421.52,491.641l-1.568-.754s-2.991,5.085-7.885,7.421c-2.167,1.034-2.4,1.189-2.27,2.94.183,2.493,1.489,9.533,3.78,9.976,2.159.417,8.658-2.968,10.547-4.858s-7.619-6.593-4.3-11.731A13.223,13.223,0,0,0,1421.52,491.641Z" transform="translate(-1409.768 -463.931)" fill="#3f2e0f"/>
      </g>
      <path id="Path_604" data-name="Path 604" d="M1614.5,875.841c0,3.023-.945,9.626.419,9.607,1.2-.016,2.023-3.345,2.625-5.853,5.272,2.363,19.991,6.992,16.456,1.922-2.44-3.5-13.383-6.6-14.251-12.552a50.263,50.263,0,0,0-5.26.236C1614.261,867.435,1614.5,875.841,1614.5,875.841Z" transform="translate(-1506.986 -742.151)" fill="#e2ab86"/>
      <path id="Path_605" data-name="Path 605" d="M1514.895,657.81l-12.942,2.148s-4.757-24.683-11.22-35.882c-4.018-6.963-27.829-40.039-20.371-45.034,8.12-5.439,29.094,24.652,35.767,36.048C1517.8,635.02,1514.895,657.81,1514.895,657.81Z" transform="translate(-1400.092 -528.326)" fill="#05c9bf"/>
      <path id="Path_606" data-name="Path 606" d="M1574.094,1260.659l2.882,14.173-6.933,1.738-4.189-15.911Z" transform="translate(-1471.424 -1030.423)" fill="#e2ab86"/>
      <path id="Path_607" data-name="Path 607" d="M1443.3,900.191s3.967,39.134,6.207,52.448c1.943,11.545,8.073,45.723,8.073,45.723l-11.369,1.267s-18.372-34.591-23.235-45.94c-5.787-13.509-19.364-53.5-19.364-53.5Z" transform="translate(-1352.024 -765.146)" fill="#163c7f"/>
      <path id="Path_608" data-name="Path 608" d="M1333.634,1261.055l-2.882,14.174,6.933,1.738,4.189-15.912Z" transform="translate(-1298.408 -1030.714)" fill="#e2ab86"/>
      <path id="Path_609" data-name="Path 609" d="M1356.323,889.8l-16.736,99.438h13.826l42.6-99.437Z" transform="translate(-1304.908 -757.497)" fill="#204fd1"/>
      <path id="Path_610" data-name="Path 610" d="M1402,578.774c6.3,5.845,8.481,18.974,11.789,34.842,5.112,24.521,2.83,61.445,3.34,63.393a136.476,136.476,0,0,1-27.71,2.592c-9.089,0-25.513-3.015-28.967-4.407,1.972-7.347,12.425-44.228,18.179-65.936,6.582-24.838,4.075-27.165,7.911-30.6C1389.749,575.782,1400.444,577.33,1402,578.774Z" transform="translate(-1320.266 -527.331)" fill="#00ddda"/>
      <path id="Path_611" data-name="Path 611" d="M1433.225,592.48c1.929,10.245-7.339,31.153-14.037,40.179-5.519,7.437-7.876,6.533-15.71,9.486l-1.433,5.237s13.119,1.913,19.855-8.228C1429,628.471,1439.615,600.315,1433.225,592.48Z" transform="translate(-1350.873 -538.695)" fill="#05c9bf"/>
      <path id="Path_612" data-name="Path 612" d="M1229.46,658.935c-1.274-2.743-3.2-9.128-4.43-8.535-1.079.52-.424,3.887.088,6.414-5.776.08-21.076,2.089-15.732,5.195,3.686,2.142,18.2,1.732,21.491,6.763,1.7-.69,2.369-5.757,3.99-6.614C1235.813,663.665,1229.46,658.935,1229.46,658.935Z" transform="translate(-1208.27 -581.292)" fill="#e2ab86"/>
      <path id="Path_613" data-name="Path 613" d="M1274.2,624.5l5.054-15.062s24.5,14.56,31.692,3.128c4.47-7.108,15.671-35.113,24.714-29.9,9.848,5.673-3.91,33.9-11.17,45.634C1311.8,648.813,1274.2,624.5,1274.2,624.5Z" transform="translate(-1256.792 -530.999)" fill="#00ddda"/>
      <path id="Path_614" data-name="Path 614" d="M1514.39,1297.515c-1.269-.039-5.23,4.182-19.153,4.523-4.279.1-4.406,6.929-.406,7.768h27.478c2.857-1.364,2.317-10.8.538-10.587-1.176-.145-1.019,1.745-4.055,1.417S1515.868,1297.526,1514.39,1297.515Z" transform="translate(-1417.019 -1057.546)" fill="#2ca4c4"/>
      <path id="Path_615" data-name="Path 615" d="M1270.484,1297.515c-1.269-.039-5.23,4.182-19.154,4.523-4.279.1-4.406,6.929-.406,7.768H1278.4c2.857-1.364,2.317-10.8.538-10.587-1.175-.145-1.019,1.745-4.055,1.417S1271.962,1297.526,1270.484,1297.515Z" transform="translate(-1237.523 -1057.546)" fill="#2ca4c4"/>
    </g>
    <g id="Group_141" data-name="Group 141" transform="translate(499.49 205.068)">
      <path id="Path_616" data-name="Path 616" d="M568.612,884.209c0,3.023.945,9.626-.42,9.606-1.2-.016-2.022-3.345-2.624-5.852-5.272,2.362-19.992,6.991-16.456,1.922,2.44-3.5,13.382-6.6,14.251-12.552a50.035,50.035,0,0,1,5.26.236C568.847,875.8,568.612,884.209,568.612,884.209Z" transform="translate(-542.75 -727.749)" fill="#e2ab86"/>
      <path id="Path_617" data-name="Path 617" d="M593.721,655.147l14.916,2.885s4.3-26.049,11.186-37.669c4.278-7.225,30.008-41.324,21.239-46.985-9.549-6.164-32.168,24.891-39.282,36.711C589.339,630.759,593.721,655.147,593.721,655.147Z" transform="translate(-575.427 -503.487)" fill="#1e4baf"/>
      <path id="Path_618" data-name="Path 618" d="M575.115,1189.813l-12.142,7.86-4.149-5.821,13.282-9.71Z" transform="translate(-550.296 -952.079)" fill="#e2ab86"/>
      <path id="Path_619" data-name="Path 619" d="M662.723,885.781H627.8s9.747,47.429,5.785,54.859c-8.668,4.953-32.125,24.39-32.125,24.39l4.116,11.521s24.3-9.53,45.1-21.547C658.753,942.127,662.723,885.781,662.723,885.781Z" transform="translate(-581.669 -733.981)" fill="#dbb205"/>
      <path id="Path_620" data-name="Path 620" d="M889.821,1257.039l2.882,14.173-6.933,1.738-4.189-15.911Z" transform="translate(-787.819 -1007.198)" fill="#e2ab86"/>
      <path id="Path_621" data-name="Path 621" d="M740.886,885.781l16.736,99.438H743.8l-42.6-99.438Z" transform="translate(-655.072 -733.981)" fill="#f7c800"/>
      <path id="Path_622" data-name="Path 622" d="M741,434.065c-2.256-3.947-5.854-6.721-5.6-11.62a14,14,0,0,1,4.636-9.576,12.122,12.122,0,0,1,10.02-2.918c12.263,2.057,14.8,22.006,12.478,31.87-2.427,10.328-8.569,3.293-13.617,1.188.337.14.612,11.746,0,16.45-4.578-.724-9.8-1.831-14.392-2.489a71.383,71.383,0,0,0,6.911-22.9" transform="translate(-679.597 -383.684)" fill="#e2ab86"/>
      <path id="Path_623" data-name="Path 623" d="M692.793,574.492c-3.867,5.646-7.324,19.961-10.633,35.829-5.112,24.522-4.6,56.945-5.111,58.894a136.469,136.469,0,0,0,27.71,2.592c9.088,0,24.23-2.986,27.683-4.379-1.972-7.347-10.527-40.744-16.28-62.452-6.582-24.838-4.075-27.165-7.911-30.6C705.044,571.5,693.992,572.739,692.793,574.492Z" transform="translate(-637.301 -503.55)" fill="#204fd1"/>
      <g id="Group_140" data-name="Group 140" transform="translate(115.466 5)">
        <path id="Path_624" data-name="Path 624" d="M969.663,323.4c-1.563,1.922-2.656.583-3.407,3.144-1.155,3.934-.658,9.878-2.484,17.956,1.544.378,4.828,1.01,6.374,1.307.593-2.489,2.472-9.351,4.164-11.089,1.305-1.34,3.477-3.489,3.906-6.364.385-2.571-2.687-6.111-3.243-8.631-.582-2.639.856-8.489-.37-8.759C972.43,310.485,971.8,320.778,969.663,323.4Z" transform="translate(-963.773 -310.951)" fill="#e2ab86"/>
      </g>
      <path id="Path_625" data-name="Path 625" d="M807.617,423.026l-12.864-3.935s-5.662,18.813-14.206,27.239c-16.674,16.443-49.2,13.88-45.772,23.739,5.677,16.331,33.5,14.7,53.9-1.19C807.718,454.06,807.617,423.026,807.617,423.026Z" transform="translate(-679.598 -385.534)" fill="#204fd1"/>
      <path id="Path_626" data-name="Path 626" d="M535.535,1210.564c.614,1.011.142,1.662,2.2,4.708,1.7,2.518,3.494.7,4.11,2.039.556,1.14-1.351,6.384,1.6,21.3.83,4.2-2.153,5.007-4.557,1.7l-7.548-18.215.144.429-1.422.638-3.528-7.851,1.986-1.6C530.3,1211.873,535.286,1209.658,535.535,1210.564Z" transform="translate(-526.531 -972.842)" fill="#204fd1"/>
      <path id="Path_627" data-name="Path 627" d="M887.586,1298.107c1.175-.145,1.575.552,5.2-.078,3-.522,2.066-2.9,3.543-2.914,1.268-.039,5.27,3.849,20.079,7.273,4.17.964,3.684,4.015-.316,4.854l-19.708-.58.449.044v1.56h-8.608l-.645-2.467C886.637,1303.418,886.657,1297.963,887.586,1298.107Z" transform="translate(-791.72 -1035.219)" fill="#204fd1"/>
      <path id="Path_628" data-name="Path 628" d="M732.2,373.817a10.571,10.571,0,0,0-10.265-4.614c-13.957,2.017-14.44,19.016-10.221,26.685,1.844,3.352,9.464,16.4,9.464,16.4h5.714a117.738,117.738,0,0,0,11.171-9.215c2.255-2.241-5.994-3.613-2.562-8.113,1.207-1.582,4.41,1.155,4.41,1.155s4.829-4.08,6.218-8.058c1.47-4.21.44-12.744-5.623-15.052C735.291,371.026,732.2,373.817,732.2,373.817Z" transform="translate(-661.098 -353.733)" fill="#a35413"/>
    </g>
  </g>
</svg>
