<svg xmlns="http://www.w3.org/2000/svg" width="14.783" height="12.625" viewBox="0 0 14.783 12.625">
  <path id="Forma_1" data-name="Forma 1" d="M10.079,12.625H2.334a2.455,2.455,0,0,1-.149-4.892V7.588a3.786,3.786,0,0,1,.129-.994A3.492,3.492,0,0,1,6.636,4.058a3.03,3.03,0,0,1,3.827-1.395l.009,0A3.263,3.263,0,0,1,12.19,6.848a3.323,3.323,0,0,1-.149.327L12,7.259c.055.05.107.1.158.155a3.117,3.117,0,0,1,.859,2.165,2.992,2.992,0,0,1-2.929,3.046ZM.535,10.173a1.85,1.85,0,0,0,1.809,1.888h7.738a2.288,2.288,0,0,0,.563-.068,2.5,2.5,0,0,0,1.77-3A2.388,2.388,0,0,0,9.533,7.148a2.321,2.321,0,0,0-.518.2.262.262,0,0,1-.082.027.271.271,0,0,1-.305-.238A3.009,3.009,0,0,0,5.739,4.537,3.027,3.027,0,0,0,2.733,7.586v.2c0,.063.009.122.015.175a.294.294,0,0,1,0,.072.273.273,0,0,1-.287.261H2.341a1.769,1.769,0,0,0-1.28.552h0A1.928,1.928,0,0,0,.535,10.173ZM11.559,6.938V6.913a2.736,2.736,0,0,0,.128-.274A2.7,2.7,0,0,0,10.26,3.187a2.448,2.448,0,0,0-1.879,0A2.572,2.572,0,0,0,7.14,4.263a3.49,3.49,0,0,1,.653.4,1.749,1.749,0,0,1,2.179-.741.285.285,0,0,1,.142.342.267.267,0,0,1-.34.179,1.233,1.233,0,0,0-1.562.6A3.693,3.693,0,0,1,9.1,6.7a2.83,2.83,0,0,1,2.461.236Zm2.873.592-1.116-.318a.284.284,0,0,1-.185-.348.269.269,0,0,1,.334-.193l1.116.318a.283.283,0,0,1,.185.348.272.272,0,0,1-.259.2A.261.261,0,0,1,14.433,7.53ZM13.145,4.706a.282.282,0,0,1,.194-.341l1.119-.31a.268.268,0,0,1,.313.192.283.283,0,0,1-.178.351l-1.119.31h0a.26.26,0,0,1-.067.009A.272.272,0,0,1,13.145,4.706ZM12.088,2.831a.29.29,0,0,1,.034-.4l.823-.848a.291.291,0,0,1,.032-.033.264.264,0,0,1,.382.036.29.29,0,0,1-.034.4l-.823.848a.269.269,0,0,1-.205.1A.266.266,0,0,1,12.088,2.831ZM6.073,2.8,5.259,1.94a.288.288,0,0,1,0-.43.263.263,0,0,1,.381.035l.814.857a.291.291,0,0,1,0,.365.263.263,0,0,1-.382.031ZM10.33,1.741l-.009,0a.283.283,0,0,1-.181-.349L10.445.227a.269.269,0,0,1,.334-.193.283.283,0,0,1,.185.348l-.3,1.162,0,.007a.271.271,0,0,1-.258.2A.261.261,0,0,1,10.33,1.741Zm-2.4-.212L7.629.363c0-.008,0-.016-.006-.024A.28.28,0,0,1,7.831.006.269.269,0,0,1,8.15.222l.3,1.166c0,.008,0,.016.006.024a.28.28,0,0,1-.207.333.259.259,0,0,1-.056.006A.272.272,0,0,1,7.927,1.529Z" fill="#989bb0"/>
</svg>
